<svg height="512" viewBox="-27 0 512 512.001" width="512" xmlns="http://www.w3.org/2000/svg">
  <path d="M419.46 68.8H38.689C21.465 68.8 7.5 82.763 7.5 99.985v373.329c0 17.226 13.965 31.187 31.188 31.187h290.261l121.7-121.695V99.985C450.644 82.761 436.683 68.8 419.46 68.8zm0 0" fill="#fd7b68"/>
  <path d="M419.46 68.8h-21.519v366.712l52.704-52.707V99.985c0-17.223-13.961-31.184-31.184-31.184zm0 0" fill="#ee4646"/>
  <path d="M450.645 382.805L328.949 504.5v-98.82c0-12.633 10.242-22.875 22.875-22.875zm0 0" fill="#faaa3c"/>
  <path d="M99.61 178.086c22 0 39.898-17.899 39.898-39.899V7.5a7.5 7.5 0 00-7.5-7.5 7.5 7.5 0 00-7.5 7.5v53.8h-9.406V27.696C115.102 12.425 102.676 0 87.406 0S59.711 12.426 59.711 27.695v110.493c0 22 17.898 39.898 39.898 39.898zm24.898-39.899c0 13.731-11.168 24.899-24.899 24.899-13.726 0-24.898-11.168-24.898-24.899V76.302h49.797zM87.406 15c7 0 12.696 5.695 12.696 12.695v33.606H74.71V27.695c0-7 5.695-12.695 12.695-12.695zM64.078 409.895H196.18a7.5 7.5 0 100-15H64.078a7.497 7.497 0 00-7.5 7.5 7.5 7.5 0 007.5 7.5zm0-61.715H394.07c4.14 0 7.5-3.36 7.5-7.5 0-4.14-3.36-7.5-7.5-7.5H64.078a7.5 7.5 0 00-7.5 7.5 7.5 7.5 0 007.5 7.5zm0-63.715H394.07c4.14 0 7.5-3.36 7.5-7.5s-3.36-7.5-7.5-7.5H64.078a7.5 7.5 0 100 15zm0-63.715H394.07a7.5 7.5 0 100-15H64.078a7.5 7.5 0 00-7.5 7.5c0 4.145 3.356 7.5 7.5 7.5zm0 0"/>
  <path d="M419.46 61.3H166.907a7.497 7.497 0 00-7.5 7.5 7.5 7.5 0 007.5 7.5h252.555c13.059 0 23.687 10.626 23.687 23.684v275.32h-91.32c-16.75 0-30.375 13.626-30.375 30.376V497H38.688C25.624 497 15 486.375 15 473.312V99.985c0-11.203 7.953-20.96 18.902-23.203 1.563-.32 3.172-.48 4.785-.48a7.5 7.5 0 100-15 38.83 38.83 0 00-7.789.785C12.996 65.75 0 81.688 0 99.984v373.329C0 494.644 17.355 512 38.688 512h290.261c1.992 0 3.899-.79 5.305-2.195l121.695-121.696a7.504 7.504 0 002.196-5.304V99.985c0-21.333-17.352-38.684-38.684-38.684zm-67.636 329.005h80.715l-96.09 96.09V405.68c0-8.48 6.899-15.375 15.375-15.375zm0 0"/>
</svg>
