<svg id="Capa_1" enable-background="new 0 0 513.121 513.121" height="512" viewBox="0 0 513.121 513.121" width="512" xmlns="http://www.w3.org/2000/svg">
  <g>
    <g>
      <path d="M243.68 300.46l-14.57-14.57-16.45-16.45c-5.59-5.59-11.89-10.02-18.62-13.29-25.81-12.59-57.83-8.15-79.28 13.29l-86.98 86.99c-27.04 27.04-27.04 70.87 0 97.9l31.01 31.01c27.03 27.04 70.86 27.04 97.9 0l86.99-86.98c27.03-27.039 27.03-70.87 0-97.9zm-38.78 72.131l-73.98 73.98c-11.14 11.15-29.21 11.15-40.35 0l-24.02-24.02c-11.14-11.14-11.14-29.21 0-40.35l73.98-73.98c1.85-1.86 3.9-3.4 6.07-4.63 10.89-6.21 24.99-4.67 34.28 4.63l24.02 24.02c11.15 11.14 11.15 29.21 0 40.35z" fill="#ffd15b"/>
      <path d="M229.11 285.891l-35.28 35.28-12.95-12.95c-9.29-9.3-23.39-10.84-34.28-4.63l47.44-47.44c6.73 3.27 13.03 7.7 18.62 13.29z" fill="#ffc344"/>
      <g fill="#ffc344">
        <path d="M66.548 422.552c-11.142-11.144-11.142-29.21.001-40.354l73.981-73.981c11.144-11.144 29.211-11.144 40.355 0l8.758 8.758-.001-.001-24.019-24.019c-11.144-11.144-29.211-11.144-40.355 0l-73.981 73.981c-11.144 11.144-11.144 29.211 0 40.354z"/>
        <path d="M243.676 300.456l-15.261-15.261c27.033 27.035 27.033 70.866-.002 97.9l-86.987 86.987c-27.035 27.035-70.867 27.035-97.902 0l-15.751-15.75.002.002 31.012 31.011c27.035 27.035 70.867 27.035 97.902 0l86.987-86.987c27.035-27.035 27.035-70.867 0-97.902z"/>
      </g>
      <path d="M485.34 58.791l-31.01-31.01c-27.03-27.04-70.86-27.04-97.9 0l-86.99 86.98c-21.44 21.45-25.88 53.47-13.29 79.28 3.27 6.73 7.7 13.03 13.29 18.62l31.02 31.02c27.03 27.03 70.86 27.03 97.9 0l86.98-86.99c27.04-27.041 27.04-70.87 0-97.9zm-38.77 72.129l-73.98 73.98c-11.14 11.15-29.21 11.15-40.35 0l-11.07-11.07-12.95-12.95c-9.3-9.29-10.84-23.39-4.63-34.28a28.08 28.08 0 014.63-6.07l73.98-73.98c11.14-11.15 29.21-11.15 40.35 0l24.02 24.02c11.15 11.14 11.15 29.211 0 40.35z" fill="#ffd15b"/>
      <path d="M321.17 193.831l-35.28 35.28-16.45-16.45c-5.59-5.59-10.02-11.89-13.29-18.62l47.44-47.44c-6.21 10.89-4.67 24.99 4.63 34.28z" fill="#ffc344"/>
      <g fill="#ffc344">
        <path d="M485.344 58.788l-15.263-15.262c27.035 27.035 27.035 70.867 0 97.902l-86.987 86.987c-27.035 27.035-70.867 27.035-97.902 0l-15.751-15.751.002.002 31.012 31.011c27.035 27.035 70.867 27.035 97.902 0l86.987-86.987c27.035-27.035 27.035-70.867 0-97.902z"/>
        <path d="M308.216 180.884c-11.142-11.144-11.142-29.21.001-40.354l73.981-73.981c11.144-11.144 29.211-11.144 40.355 0l8.758 8.758-.001-.001-24.019-24.019c-11.144-11.144-29.211-11.144-40.355 0l-73.981 73.981c-11.144 11.144-11.144 29.211 0 40.354z"/>
      </g>
      <path d="M167.695 352.008l-6.583-6.583c-7.13-7.13-7.13-18.691 0-25.821L320.97 159.747c7.13-7.13 18.691-7.13 25.821 0l6.583 6.583c7.13 7.13 7.13 18.691 0 25.821L193.516 352.008c-7.13 7.13-18.691 7.13-25.821 0z" fill="#ffd15b"/>
      <path d="M353.374 166.33l-6.583-6.583a18.166 18.166 0 00-5.104-3.576c3.208 6.776 2.029 15.112-3.576 20.717L178.253 336.746c-5.605 5.605-13.941 6.784-20.717 3.576a18.187 18.187 0 003.576 5.104l6.583 6.583c7.13 7.13 18.691 7.13 25.821 0L353.374 192.15c7.13-7.13 7.13-18.69 0-25.82z" fill="#ffc344"/>
    </g>
    <path d="M490.644 53.487l-31.01-31.01C445.145 7.983 425.878 0 405.384 0s-39.763 7.982-54.257 22.477l-86.992 86.981c-18.84 18.848-26.5 45.615-20.489 71.604.933 4.035 4.961 6.554 8.997 5.616a7.499 7.499 0 005.617-8.997c-4.837-20.914 1.325-42.453 16.482-57.616l86.991-86.98C373.395 21.423 388.897 15 405.384 15c16.486 0 31.985 6.422 43.642 18.084l31.012 31.012c11.661 11.655 18.083 27.154 18.083 43.641s-6.423 31.989-18.084 43.651l-86.979 86.988c-21.917 21.911-56.727 23.811-80.868 5.565l26.094-26.094a35.976 35.976 0 0014.075 2.878c9.332 0 18.607-3.587 25.535-10.521l73.977-73.978c6.812-6.805 10.563-15.854 10.563-25.481 0-9.626-3.751-18.676-10.56-25.479L427.856 61.25c-6.805-6.812-15.854-10.563-25.48-10.563-9.627 0-18.677 3.751-25.479 10.56l-73.977 73.978c-10.491 10.48-13.322 26.331-7.663 39.628l-83.618 83.618c-13.705-10.998-30.667-16.923-48.429-16.803-20.301.133-39.391 8.112-53.753 22.47l-86.979 86.989C7.982 365.622 0 384.891 0 405.385s7.982 39.761 22.477 54.248l31.009 31.011c14.489 14.494 33.756 22.478 54.25 22.478s39.763-7.982 54.257-22.477l86.991-86.981c14.356-14.361 22.335-33.451 22.468-53.752.117-17.796-5.806-34.732-16.803-48.431l46.833-46.833c13.566 10.893 30.309 16.807 47.916 16.806l.51-.001c20.301-.132 39.391-8.11 53.754-22.469l86.98-86.989c14.494-14.495 22.477-33.764 22.477-54.258s-7.982-39.761-22.475-54.25zM295.785 239.13l-.015.018-107.558 107.557c-2.032 2.032-4.733 3.15-7.606 3.15s-5.575-1.118-7.607-3.15v-.001l-6.582-6.581c-4.195-4.195-4.195-11.021 0-15.215L309.69 181.634l.127-.127 16.457-16.457a10.684 10.684 0 017.606-3.151c2.874 0 5.575 1.12 7.607 3.152l6.582 6.582a10.687 10.687 0 013.151 7.607 10.68 10.68 0 01-3.151 7.606l-16.462 16.462-.116.116-35.677 35.677c-.009.011-.02.019-.029.029zm17.739-93.296l73.981-73.982a20.882 20.882 0 0114.87-6.164 20.88 20.88 0 0114.871 6.167l24.022 24.021a20.881 20.881 0 016.164 14.869 20.88 20.88 0 01-6.167 14.872l-73.98 73.983c-4.514 4.518-10.731 6.587-16.796 6.042l8.188-8.188c4.866-4.865 7.545-11.333 7.545-18.214s-2.679-13.349-7.544-18.215l-6.582-6.582c-4.866-4.865-11.334-7.545-18.215-7.545s-13.349 2.68-18.214 7.545l-8.188 8.188c-.544-6.065 1.525-12.282 6.045-16.797zm-75.147 247.223l-86.99 86.98c-11.661 11.661-27.164 18.084-43.65 18.084s-31.986-6.422-43.643-18.083l-31.011-31.013C21.422 437.37 15 421.871 15 405.385c0-16.487 6.422-31.989 18.083-43.651l86.979-86.988c21.919-21.911 56.731-23.811 80.872-5.569l-26.077 26.077c-13.299-5.657-29.153-2.823-39.63 7.664l-73.98 73.98c-14.048 14.049-14.048 36.907 0 50.957l24.02 24.019c6.804 6.806 15.853 10.553 25.479 10.553 9.625 0 18.674-3.748 25.478-10.552l4.538-4.537a7.5 7.5 0 00-10.607-10.607l-4.538 4.538c-3.971 3.971-9.252 6.158-14.871 6.158s-10.9-2.188-14.872-6.159l-24.02-24.019c-8.2-8.201-8.2-21.544 0-29.744l73.983-73.982c4.513-4.517 10.73-6.586 16.797-6.044l-6.825 6.825c-10.042 10.043-10.042 26.384 0 36.428l6.583 6.582v-.001c4.865 4.866 11.334 7.545 18.214 7.545s13.349-2.679 18.213-7.544l6.825-6.825c.542 6.067-1.528 12.286-6.047 16.8l-44.12 44.12a7.5 7.5 0 0010.606 10.607l44.118-44.118c10.49-10.479 13.323-26.333 7.667-39.634l26.077-26.077c18.242 24.139 16.341 58.953-5.568 80.87z"/>
  </g>
</svg>
