<svg xmlns="http://www.w3.org/2000/svg" height="511" viewBox="1 -41 512 511" width="511">
  <g id="surface1">
    <path d="M418.621 300.918H16.7a9.119 9.119 0 01-9.12-9.121V17.199c0-5.039 4.081-9.125 9.12-9.125h401.922a9.126 9.126 0 019.125 9.125v274.594a9.123 9.123 0 01-9.125 9.125zm0 0" style="stroke:none;fill-rule:nonzero;fill:rgb(62.745098%,62.745098%,64.705882%);fill-opacity:1"/>
    <path d="M456.96 361.441H55.04a9.126 9.126 0 01-9.126-9.125V77.723a9.126 9.126 0 019.125-9.125h401.922a9.126 9.126 0 019.125 9.125v274.593a9.126 9.126 0 01-9.125 9.125zm0 0" style="stroke:none;fill-rule:nonzero;fill:rgb(72.54902%,72.54902%,74.509804%);fill-opacity:1"/>
    <path d="M504.422 138.246V412.84a9.12 9.12 0 01-9.125 9.12H93.375a9.119 9.119 0 01-9.121-9.12V138.246a9.12 9.12 0 019.121-9.125h401.922a9.12 9.12 0 019.125 9.125zm0 0" style="stroke:none;fill-rule:nonzero;fill:rgb(82.352941%,82.352941%,84.313725%);fill-opacity:1"/>
    <path d="M504.422 138.246v252.39h-380.73a9.12 9.12 0 01-9.126-9.12V129.12h380.73a9.12 9.12 0 019.126 9.125zm0 0" style="stroke:none;fill-rule:nonzero;fill:rgb(92.156863%,92.156863%,94.117647%);fill-opacity:1"/>
    <path d="M504.422 267.23a7.573 7.573 0 007.578-7.578V138.246c0-9.207-7.488-16.703-16.703-16.703h-21.633V77.719c0-9.203-7.488-16.703-16.703-16.703h-21.633V17.203c0-9.215-7.5-16.703-16.703-16.703H231.02a7.578 7.578 0 100 15.156h187.605c.848 0 1.543.688 1.543 1.547v43.813H55.039c-9.215 0-16.703 7.5-16.703 16.703v215.62H16.703c-.86 0-1.547-.694-1.547-1.542V17.203c0-.86.688-1.547 1.547-1.547h184.004a7.573 7.573 0 007.578-7.578A7.568 7.568 0 00200.707.5H16.703C7.488.5 0 7.988 0 17.203v274.594C0 301 7.488 308.5 16.703 308.5h21.633v43.82c0 9.207 7.488 16.703 16.703 16.703h21.633v43.817c0 9.215 7.5 16.703 16.703 16.703h401.922c9.215 0 16.703-7.488 16.703-16.703V289.965a7.58 7.58 0 00-7.578-7.578 7.58 7.58 0 00-7.578 7.578V412.84a1.54 1.54 0 01-1.547 1.543H93.375a1.544 1.544 0 01-1.543-1.543V222.82a7.583 7.583 0 00-7.578-7.578c-4.184 0-7.582 3.395-7.582 7.578v131.047H55.039a1.553 1.553 0 01-1.547-1.547V77.72c0-.848.7-1.547 1.547-1.547h401.922c.848 0 1.547.7 1.547 1.547v43.824H93.375c-9.203 0-16.703 7.496-16.703 16.703v54.262a7.579 7.579 0 007.582 7.578 7.578 7.578 0 007.578-7.578v-54.262c0-.848.695-1.547 1.543-1.547h401.922c.86 0 1.547.7 1.547 1.547v121.406a7.573 7.573 0 007.578 7.578zm0 0" style="stroke:none;fill-rule:nonzero;fill:rgb(0%,0%,0%);fill-opacity:1"/>
  </g>
</svg>
