<svg xmlns="http://www.w3.org/2000/svg" xmlns:sodipodi="http://sodipodi.sourceforge.net/DTD/sodipodi-0.dtd" xmlns:inkscape="http://www.inkscape.org/namespaces/inkscape" version="1.1" id="Layer_1" x="0" y="0" viewBox="0 0 512 512" style="enable-background:new 0 0 512 512" xml:space="preserve" sodipodi:docname="divide-node-icon.svg" inkscape:version="1.0.1 (3bc2e813f5, 2020-09-07)">
  <sodipodi:namedview pagecolor="#ffffff" bordercolor="#666666" borderopacity="1" objecttolerance="10" gridtolerance="10" guidetolerance="10" inkscape:pageopacity="0" inkscape:pageshadow="2" inkscape:window-width="1833" inkscape:window-height="1010" id="namedview892" showgrid="false" inkscape:zoom="1.426" inkscape:cx="256" inkscape:cy="256" inkscape:window-x="63" inkscape:window-y="0" inkscape:window-maximized="0" inkscape:current-layer="Layer_1"/>
  <path style="fill:#FF6465" d="M256.001 8.505C119.314 8.505 8.507 119.313 8.507 256s110.807 247.495 247.495 247.495S503.496 392.688 503.496 256 392.689 8.505 256.001 8.505z" id="path883"/>
  <path style="opacity:0.1;enable-background:new" d="M76.55 256c0-125.143 92.887-228.574 213.473-245.156a249.533 249.533 0 00-34.022-2.338C119.314 8.505 8.507 119.313 8.507 256s110.807 247.495 247.495 247.495c11.545 0 22.898-.809 34.022-2.338C169.437 484.574 76.55 381.143 76.55 256z" id="path885"/>
  <path style="fill:#ffffff" d="M132.556 342.392c-5.727-5.727-5.728-15.012 0-20.74l189.096-189.096c5.727-5.727 15.012-5.728 20.74 0l37.051 37.051c5.727 5.727 5.728 15.012 0 20.74L190.347 379.443c-5.727 5.727-15.012 5.728-20.74 0z" id="path887"/>
  <path d="M437.027 437.021c-28.847 28.847-64.504 50.592-103.118 62.888-37.354 11.894-77.638 15.063-116.495 9.169a8.505 8.505 0 01-7.133-9.685c.705-4.643 5.04-7.839 9.685-7.133 36.289 5.506 73.905 2.545 108.783-8.56 36.549-11.637 68.932-31.389 96.25-58.706 93.181-93.182 93.181-244.8 0-337.981-22.44-22.44-48.583-39.911-77.7-51.93a8.505 8.505 0 016.488-15.723c31.2 12.876 59.205 31.592 83.238 55.626 48.352 48.35 74.98 112.639 74.98 181.019.002 68.377-26.626 132.664-74.978 181.016zm-251.27 60.494a8.505 8.505 0 01-8.634 2.083c-38.769-12.52-73.132-33.574-102.135-62.577C26.637 388.671.008 324.382.008 256.002c0-68.38 26.628-132.667 74.98-181.02 31.566-31.565 70.894-54.395 113.733-66.019C230.26-2.31 274.348-2.935 316.218 7.154a8.503 8.503 45 016.275 10.261 8.503 8.503 45 01-10.26 6.276c-39.098-9.422-80.267-8.838-119.058 1.688-39.978 10.849-76.688 32.16-106.158 61.63-93.182 93.184-93.182 244.802 0 337.984 27.078 27.078 59.153 46.734 95.333 58.418a8.506 8.506 0 013.407 14.104zm199.708-301.152L196.368 385.46c-9.034 9.034-23.733 9.034-32.767 0l-37.052-37.052c-9.034-9.034-9.034-23.733 0-32.767l189.097-189.097c9.034-9.034 23.734-9.033 32.767 0l37.052 37.052c9.034 9.034 9.034 23.733 0 32.767zM138.578 327.67a6.166 6.166 0 000 8.71l37.052 37.052a6.165 6.165 0 008.71 0l189.097-189.097a6.165 6.165 0 000-8.71l-37.052-37.051a6.165 6.165 0 00-8.71 0z" id="path889"/>
</svg>
