<svg height="512" viewBox="0 0 511.924 511.924" width="512" xmlns="http://www.w3.org/2000/svg">
  <path d="M255.962 504.432v-497L7.462 378.71z" fill="#fcf2b4"/>
  <path d="M255.962 504.432v-497l248.5 371.278z" fill="#fce767"/>
  <path d="M467.11 397.607l37.352-18.897-248.5-371.278z" fill="#fcdf2b"/>
  <path d="M510.695 374.538L262.195 3.261c-2.935-4.386-9.65-4.329-12.515.074l-50.243 75.067c-5.394 8.059 7.071 16.401 12.466 8.343l36.56-54.623v460.111L18.406 375.842l171.678-256.499c5.394-8.059-7.071-16.401-12.466-8.343L1.229 374.538c-2.312 4.476-1.363 8.097 2.847 10.864l248.5 125.723a7.584 7.584 0 006.771 0l53.66-27.148c8.653-4.378 1.881-17.762-6.771-13.385l-42.774 21.641V32.122l230.056 343.719-152.95 77.381c-8.901 4.504-1.475 17.556 6.771 13.385l160.509-81.206c4.21-2.766 5.159-6.387 2.847-10.863z"/>
</svg>
