<svg id="Layer_1" enable-background="new 0 0 511.924 511.924" height="512" viewBox="0 0 511.924 511.924" width="512" xmlns="http://www.w3.org/2000/svg">
  <g>
    <g>
      <path d="M255.901 504.5l123.36-350.062H132.526z" fill="#fcdc19"/>
      <path d="M255.901 504.5l248.504-350.062H379.284z" fill="#fce767"/>
      <path d="M454.405 154.438L255.901 504.5l248.504-350.062z" fill="#fcdf2b"/>
      <path d="M255.901 504.5L7.405 154.438h125.121zM305.905 7.5h-100l-73.379 146.938h246.735z" fill="#fce767"/>
      <g fill="#fcf2b4">
        <path d="M131.653 7.5L8.286 154.438h124.24L205.905 7.5zM381.038 7.5l123.367 146.938h-124.24L305.905 7.5z"/>
      </g>
    </g>
    <path d="M511.057 157.901c1.383-2.631 1.001-6.014-.907-8.286L386.782 2.678A7.499 7.499 0 00381.038 0H131.653c-2.216 0-4.319.98-5.744 2.678L4.156 147.693c-4.257 2.431-5.212 6.126-2.866 11.086l248.496 350.063c2.91 4.119 9.316 4.099 12.231 0l107.581-151.546c5.613-7.908-6.618-16.591-12.231-8.684l-76.601 107.906 103.828-294.581h105.29L380.367 316.211c-5.612 7.908 6.616 16.588 12.231 8.684L510.521 158.78l.536-.879zm-22.742-10.963H383.9L318.032 15h59.51zM135.149 15h58.627l-24.112 48.283c-4.333 8.675 9.088 15.378 13.42 6.701L210.543 15h90.724l65.868 131.938h-222.48l20.788-41.626c4.333-8.676-9.085-15.375-13.42-6.701l-24.134 48.327H24.376zM21.927 161.938h105.29l103.822 294.581zm233.975 319.999l-112.78-320H368.69z"/>
  </g>
</svg>
