<svg id="Layer_1" enable-background="new 0 0 512 512" height="512" viewBox="0 0 512 512" width="512" xmlns="http://www.w3.org/2000/svg">
  <g>
    <g>
      <path d="M23.5 397.422L139.75 504.5h232.5L488.5 397.422" fill="none"/>
      <path d="M372.25 7.5h-232.5L23.5 114.578l116.25 107.078h232.5L488.5 114.578z" fill="#ffac8a"/>
      <path d="M139.75 221.656h232.5V504.5h-232.5z" fill="#ff6a2e"/>
      <path d="M488.5 114.578v282.844L372.25 504.5V221.656z" fill="#ff8959"/>
      <path d="M438.5 160.633v282.789l-66.25 61.023v.055L488.5 397.422V114.578z" fill="#ff7b45"/>
      <path d="M23.5 114.578v282.844L139.75 504.5V221.656z" fill="#fa5411"/>
    </g>
    <path d="M495.959 113.798a7.624 7.624 0 00-2.378-4.737L377.331 1.983A7.501 7.501 0 00372.25 0h-232.5a7.501 7.501 0 00-5.081 1.983L18.419 109.062A7.576 7.576 0 0016 114.579v282.844c0 2.075.894 4.111 2.419 5.517l116.25 107.078a7.563 7.563 0 005.081 1.983h232.5a7.563 7.563 0 005.081-1.983l116.25-107.078a7.574 7.574 0 002.419-5.517V114.578a7.46 7.46 0 00-.041-.78zm-390.821 65.78c-7.133-6.57-17.294 4.463-10.162 11.033l37.274 34.333v262.45L31 394.133v-262.45l34.699 31.961c7.133 6.569 17.295-4.463 10.162-11.033L34.57 114.578 142.678 15h226.645l108.107 99.578-108.107 99.578H142.678zM481 394.133l-101.25 93.262v-36.434c0-9.697-15-9.697-15 0V497h-217.5V229.156h217.5V411c0 9.697 15 9.697 15 0V224.945L481 131.683z"/>
  </g>
</svg>
