<svg id="Layer_1" enable-background="new 0 0 511.931 511.931" height="512" viewBox="0 0 511.931 511.931" width="512" xmlns="http://www.w3.org/2000/svg">
  <g>
    <g>
      <g>
        <path d="M23.466 434.284L255.855 7.431l232.61 426.853c0 38.741-104.094 70.147-232.5 70.147S23.466 473.025 23.466 434.284z" fill="#fce767"/>
      </g>
      <path d="M255.855 7.431l-24.988 45.898 207.598 380.955c0 36.193-90.852 65.979-207.5 69.742 8.214.265 16.553.405 25 .405 128.406 0 232.5-31.406 232.5-70.147z" fill="#fcdf2b"/>
      <g>
        <path d="M110.46 274.568L255.897 7.431l145.574 267.137c0 24.245-65.145 43.9-145.505 43.9s-145.506-19.655-145.506-43.9z" fill="#fcf2b4"/>
      </g>
      <path d="M255.897 7.431l-24.991 45.904L366.91 302.969c21.552-7.656 34.561-17.569 34.561-28.401z" fill="#fced90"/>
    </g>
    <path d="M495.051 430.695L262.441 3.842c-2.792-5.124-10.382-5.123-13.172.002l-54.275 99.693c-4.638 8.517 8.538 15.689 13.174 7.172l47.691-87.599 137.888 253.032c-1.579 5.898-11.89 14.693-37.059 22.286-26.799 8.085-62.569 12.539-100.722 12.539s-73.922-4.453-100.722-12.539c-25.321-7.639-35.603-16.494-37.085-22.393l69.655-127.943c4.638-8.517-8.538-15.689-13.174-7.172L16.879 430.698a7.502 7.502 0 00-.913 3.586c0 22.653 25.392 42.288 73.431 56.782 44.597 13.455 103.752 20.865 166.569 20.865 49.782 0 97.396-4.647 137.694-13.439 9.474-2.067 6.277-16.725-3.197-14.655-39.265 8.566-85.773 13.095-134.497 13.095-61.389 0-119.006-7.183-162.236-20.226C55.952 465.308 32.808 450.214 31.071 436l78.887-144.9c7.634 8.454 21.427 15.8 40.953 21.691 28.166 8.498 65.475 13.178 105.054 13.178s76.889-4.68 105.054-13.178c19.486-5.879 33.261-13.207 40.905-21.64l78.935 144.851c-1.524 12.487-19.531 25.706-49.934 36.534-9.009 3.208-3.752 17.257 5.032 14.131 39.257-13.981 60.007-32.095 60.007-52.382a7.477 7.477 0 00-.913-3.59z"/>
  </g>
</svg>
