<svg height="512" viewBox="0 0 511.99 511.99" width="512" xmlns="http://www.w3.org/2000/svg">
  <path d="M255.995 7.5L28.109 121.348l227.886 113.849L483.88 121.348z" fill="#7affd5"/>
  <path d="M255.995 234.836V504.5L483.88 390.651V121.348z" fill="#1ee3a5"/>
  <path d="M433.62 146.378v269.383l50.26-25.11V121.348z" fill="#1cd198"/>
  <path d="M28.109 121.348l227.886 113.488V504.5L28.109 390.651z" fill="#15aa78"/>
  <path d="M487.232 114.639L259.346.79a7.502 7.502 0 00-6.704 0l-47.726 23.843c-8.395 4.196-2.075 17.804 6.704 13.419l44.374-22.168 211.104 105.465-211.103 105.464L44.891 121.348l131.362-65.626c8.396-4.196 2.074-17.805-6.704-13.419L24.757 114.639c-2.509 1.251-4.148 3.906-4.148 6.709v269.303a7.5 7.5 0 004.148 6.709l227.886 113.849a7.59 7.59 0 006.704 0l45.408-22.686c8.396-4.195 2.076-17.803-6.703-13.419l-34.557 17.264V239.834l212.886-106.355v252.535l-141.924 70.903c-8.42 4.207-2.017 17.775 6.703 13.419l146.072-72.976a7.5 7.5 0 004.148-6.709V121.348c.001-2.973-1.932-5.601-4.148-6.709zM35.609 386.014V133.479l212.886 106.355v252.535z"/>
</svg>
