<svg height="512" width="512" xmlns="http://www.w3.org/2000/svg">
  <path d="M458.5 78.616v354.768c0 39.276-90.662 71.116-202.5 71.116S53.5 472.66 53.5 433.384V78.616z" fill="#fc7bd6"/>
  <path d="M408.5 78.616v354.768c0 36.303-77.459 66.25-177.5 70.576 8.193.354 16.534.54 25 .54 111.838 0 202.5-31.84 202.5-71.116V78.616z" fill="#fc65cf"/>
  <ellipse cx="256" cy="78.616" fill="#fcb1e6" rx="202.5" ry="71.116"/>
  <path d="M466 78.615c-.001-22.423-22.845-42.794-64.325-57.362C362.649 7.548 310.914 0 256 0c-41.691 0-81.881 4.377-116.225 12.658-9.427 2.272-5.912 16.859 3.516 14.582C176.501 19.232 215.476 15 256 15c53.266 0 103.234 7.247 140.704 20.406C430.702 47.346 451 63.499 451 78.616s-20.298 31.27-54.296 43.21c-37.47 13.159-87.438 20.406-140.704 20.406s-103.234-7.247-140.704-20.406C81.298 109.886 61 93.733 61 78.616c0-13.833 16.687-28.419 45.781-40.018 9.008-3.591 3.452-17.527-5.555-13.934C55.582 42.861 46 64.047 46 78.615v354.769c0 22.423 22.845 42.795 64.325 57.363C149.351 504.452 201.086 512 256 512s106.649-7.548 145.675-21.253C443.155 476.179 466 455.808 466 433.384v-46.672c0-9.697-15-9.697-15 0v46.672c0 15.117-20.298 31.27-54.296 43.21C359.234 489.753 309.266 497 256 497s-103.234-7.247-140.704-20.406C81.298 464.654 61 448.501 61 433.384V108.757c10.895 10.313 27.534 19.569 49.325 27.222 39.025 13.705 90.761 21.253 145.675 21.253s106.649-7.548 145.675-21.253c21.792-7.653 38.43-16.91 49.325-27.222v238.958c0 9.697 15 9.697 15 0z"/>
</svg>
