<svg height="512" width="512" xmlns="http://www.w3.org/2000/svg">
  <circle cx="256" cy="256.336" fill="#c7d5ff" r="248.5"/>
  <path d="M256 7.836c137.243 0 248.5 111.257 248.5 248.5s-111.257 248.5-248.5 248.5z" fill="#b3c6ff"/>
  <path d="M256 7.836v5.033c113.278 23.14 198.5 123.351 198.5 243.467S369.278 476.662 256 499.803v5.033c137.243 0 248.5-111.257 248.5-248.5S393.243 7.836 256 7.836z" fill="#a3baff"/>
  <path d="M504.483 254.979c-.501 39.771-53.781 74.282-131.878 91.774C354.392 439.286 309.053 504.836 256 504.836c137.243 0 248.5-111.257 248.5-248.5 0-.454-.015-.904-.017-1.357z" fill="#96b1ff"/>
  <path d="M504.483 254.979c-.321 25.515-22.366 48.864-58.749 66.944-19.764 72.406-71.44 131.631-138.988 161.626-15.51 13.679-32.68 21.286-50.746 21.286 137.243 0 248.5-111.257 248.5-248.5 0-.453-.015-.903-.017-1.356z" fill="#85a4ff"/>
  <path d="M139.395 346.754C61.303 329.262 8.026 294.755 7.517 254.988c-.002.45-.017.897-.017 1.348 0 137.243 111.257 248.5 248.5 248.5-53.053 0-98.392-65.55-116.605-158.082z" fill="#b3c6ff"/>
  <path d="M130.849 256.336c0 31.902 3.031 62.396 8.547 90.418 34.775 7.789 74.46 12.209 116.604 12.209 42.145 0 81.83-4.42 116.605-12.209 5.516-28.023 8.547-58.516 8.547-90.418 0-137.243-56.032-248.5-125.151-248.5s-125.152 111.257-125.152 248.5z" fill="#e0e8ff"/>
  <path d="M372.605 346.754c-34.775 7.789-74.46 12.209-116.605 12.209-42.144 0-81.83-4.42-116.604-12.209C157.608 439.286 202.947 504.836 256 504.836s98.392-65.55 116.605-158.082z" fill="#c7d5ff"/>
  <path d="M512 256.336l-.001-.061v-.013l-.001-.009c-.022-68.349-26.648-132.604-74.979-180.936C362.511.808 246.631-20.517 150.504 23.018c-32.103 14.539-60.432 35.202-84.2 61.415-6.514 7.184 4.599 17.26 11.112 10.075 22.381-24.684 49.054-44.139 79.276-57.826a238.852 238.852 0 0146.226-15.487c-15.653 13.004-29.934 31.871-42.111 56.051-24.155 47.961-37.458 111.563-37.458 179.089 0 27.584 2.22 54.591 6.601 80.453-69.797-17.687-114.517-49.283-114.933-81.897 0-.017-.003-.033-.003-.05.284-46.368 13.75-91.287 39.003-129.997 5.299-8.121-7.264-16.317-12.563-8.196C14.334 158.218 0 206.521 0 256.336c0 68.38 26.629 132.667 74.98 181.02 98.665 98.664 263.354 98.684 362.039 0C485.371 389.003 512 324.715 512 256.336zM174.203 83.993C196.501 39.718 225.55 15.336 256 15.336s59.499 24.383 81.797 68.658c23.121 45.909 35.854 107.115 35.854 172.342 0 28.961-2.517 57.243-7.485 84.145-33.93 7.191-71.9 10.982-110.166 10.982s-76.236-3.791-110.166-10.982c-4.968-26.902-7.485-55.184-7.485-84.145 0-65.228 12.733-126.434 35.854-172.343zm85.629 413.296c-1.277.02-2.552.047-3.832.047-45.479 0-87.699-56.143-106.884-140.887 33.282 6.557 69.965 10.014 106.884 10.014 36.934 0 73.632-3.459 106.925-10.022-10.384 43.117-24.425 86.639-57.099 118.465-10.611 9.89-26.96 21.452-45.994 22.383zM18.384 296.872c5.892 6.473 13.155 12.685 21.753 18.548 23.02 15.699 55.054 28.646 92.868 37.56 13.298 63.78 38.606 112.587 69.957 138.533-44.121-9.86-84.629-32.02-117.374-64.765-35.815-35.814-58.959-80.918-67.204-129.876zm291.405 194.467c41.285-33.786 57.731-88.434 69.371-138.348 14.635-2.563 28.535-7.984 42.565-12.682 9.195-3.08 4.432-17.303-4.764-14.224-11.582 3.88-23.029 8.323-34.965 11.034 4.419-25.963 6.656-53.082 6.656-80.784 0-67.526-13.303-131.128-37.458-179.089-12.19-24.204-26.486-43.083-42.157-56.089 44.121 9.86 84.63 32.02 117.375 64.766C471.932 131.442 497 191.962 497 256.336c0 .083-.003.164-.003.247.011 12.212-11.811 32.772-37.914 49.289-7.97 5.043-.097 17.809 8.021 12.676 9.897-6.262 19.193-14.118 26.638-22.456-8.13 49.259-31.324 94.652-67.329 130.657-32.559 32.558-72.795 54.647-116.624 64.59z"/>
</svg>
