<svg id="Layer_1" enable-background="new 0 0 512.071 512.071" height="512" viewBox="0 0 512.071 512.071" width="512" xmlns="http://www.w3.org/2000/svg"><g><g><path d="" fill="#fff"/><path d="" fill="#fff"/><g><path d="m504.521 98.557v317.658c0 48.763-111.257 88.293-248.5 88.293s-248.5-39.53-248.5-88.293v-317.658z" fill="#fce767"/><path d="m454.521 98.557v317.658c0 45.765-97.998 83.395-223.5 87.85 8.222.292 16.561.443 25 .443 137.243 0 248.5-39.53 248.5-88.293v-317.658z" fill="#fcdf2b"/><ellipse cx="256.021" cy="95.801" fill="#fcf2b4" rx="248.5" ry="88.293"/><ellipse cx="256.021" cy="95.801" fill="#fcdc19" rx="145.715" ry="26.621"/></g></g><g><path d="m512.021 97.661c.029-.619 0-1.238 0-1.86 0-26.998-27.62-51.68-77.773-69.5-47.722-16.955-111.017-26.293-178.227-26.293-50.576 0-99.392 5.326-141.167 15.403-9.427 2.274-5.909 16.857 3.518 14.582 40.642-9.804 88.239-14.985 137.649-14.985 65.543 0 127.055 9.03 173.205 25.428 43.085 15.308 67.795 35.488 67.795 55.365s-24.71 40.058-67.795 55.366c-46.15 16.397-107.662 25.427-173.205 25.427s-127.055-9.03-173.205-25.427c-43.085-15.308-67.795-35.488-67.795-55.366 0-19.577 24.11-39.539 66.15-54.767 9.118-3.304 4.009-17.401-5.109-14.104-49.037 17.764-76.041 42.222-76.041 68.871 0 105.693-.004 211.402 0 317.1-1.159 42.403 46.927 61.101 67.288 69.1 45.318 17.572 96.157 27.222 155.453 29.503 58.352 2.011 117.378-1.05 174.284-14.862 9.422-2.289 5.888-16.854-3.539-14.577-49.318 11.971-104.999 16.699-170.198 14.449-57.579-2.214-106.833-11.536-150.546-28.486-28.771-11.304-58.664-26.653-57.836-54.799 2.505-94.572.653-189.666 0-284.274 13.001 13.785 34.262 26.183 62.867 36.346 47.721 16.955 111.017 26.293 178.227 26.293s130.506-9.338 178.227-26.293c28.494-10.124 49.704-22.465 62.719-36.186.021 29.937 1.444 224.174-.423 291.978-4.612 20.121-31.324 39.968-51.123 44.365-17.673 3.917-7.714 22.494 1.311 15.135 26.222-10 58.897-26.676 65.29-57.04.091-.44.035-325.587-.001-325.892z"/><path d="m151.637 122.003c27.953 5.106 65.023 7.919 104.384 7.919s76.431-2.813 104.384-7.919c33.771-6.17 48.831-14.25 48.831-26.202s-15.06-20.032-48.831-26.202c-27.953-5.106-65.023-7.919-104.384-7.919s-76.431 2.812-104.384 7.919c-33.771 6.17-48.831 14.25-48.831 26.202s15.059 20.032 48.831 26.202zm7.942-38.559c26.42-4.362 60.67-6.764 96.441-6.764s70.021 2.402 96.441 6.764c29.387 4.852 38.479 10.239 41.046 12.357-2.566 2.118-11.659 7.505-41.046 12.357-26.42 4.362-60.67 6.764-96.441 6.764s-70.021-2.402-96.441-6.764c-29.387-4.852-38.479-10.239-41.046-12.357 2.567-2.118 11.659-7.505 41.046-12.357z"/></g></g></svg>