<svg id="Capa_1" enable-background="new 0 0 512 512" height="512" viewBox="0 0 512 512" width="512" xmlns="http://www.w3.org/2000/svg">
  <g>
    <g>
      <path d="M152.826 488.802l-136.7-136.7c-11.502-11.502-11.502-30.15 0-41.652l93.082-93.082L287.56 395.721l-93.082 93.082c-11.501 11.501-30.15 11.502-41.652-.001z" fill="#f2fdff"/>
      <path d="M273.418 381.579l-93.082 93.082c-11.502 11.502-30.15 11.502-41.652 0l21.213 21.213c11.502 11.502 30.15 11.502 41.652 0l93.082-93.082z" fill="#d3ecf5"/>
      <path d="M273.418 409.863L95.066 231.511 310.451 16.127c11.502-11.502 30.15-11.502 41.652 0l136.7 136.7c11.502 11.502 11.502 30.15 0 41.652z" fill="#9dc6fb"/>
      <path d="M495.874 159.897l-21.213-21.213c11.502 11.502 11.502 30.15 0 41.652L259.276 395.721l21.213 21.213L495.873 201.55c11.502-11.502 11.503-30.151.001-41.653z" fill="#80b4fb"/>
      <ellipse cx="305.883" cy="206.117" fill="#f9d065" rx="102.863" ry="56.456" transform="rotate(-45 305.868 206.189)"/>
    </g>
    <g>
      <path d="M180.888 511.99h323.428c4.143 0 7.5-3.358 7.5-7.5s-3.357-7.5-7.5-7.5H211.051l26.415-26.415a7.5 7.5 0 00-10.607-10.606l-30.612 30.612c-4.043 4.044-9.39 6.299-15.091 6.409h-.862c-5.702-.11-11.048-2.365-15.091-6.409L21.43 346.809A21.805 21.805 0 0115 331.287a21.804 21.804 0 016.431-15.523l73.636-73.636 174.816 174.816-19.912 19.912a7.5 7.5 0 005.304 12.803 7.478 7.478 0 005.304-2.197l240.598-240.599c6.98-6.98 10.824-16.259 10.824-26.129s-3.844-19.15-10.823-26.129L357.406 10.834c-6.98-6.979-16.26-10.823-26.13-10.823s-19.15 3.844-26.13 10.823l-19.403 19.404a7.5 7.5 0 000 10.606 7.501 7.501 0 0010.607 0l19.403-19.404c8.558-8.561 22.487-8.56 31.045 0L490.57 165.212c4.146 4.146 6.43 9.659 6.43 15.522s-2.283 11.376-6.431 15.523l-210.08 210.081-174.816-174.816L273.238 63.956a7.5 7.5 0 00-10.607-10.606L10.824 305.158C3.844 312.137 0 321.417 0 331.287s3.844 19.15 10.823 26.129l143.771 143.771a36.843 36.843 0 0024.603 10.802h1.691z"/>
      <path d="M354.644 224.82a7.5 7.5 0 0011.799 9.262c31.97-40.729 39.157-84.314 17.479-105.992-25.357-25.357-79.502-10.946-123.264 32.814-43.759 43.759-58.173 97.903-32.814 123.262 8.226 8.225 19.749 12.445 33.426 12.445 6.077 0 12.581-.833 19.409-2.519 20.575-5.081 42.762-17.587 62.474-35.215a7.5 7.5 0 00-10-11.181c-35.689 31.917-77.287 43.278-94.701 25.864-18.765-18.765-3.737-65.498 32.814-102.049 36.551-36.552 83.283-51.581 102.049-32.814 7.335 7.335 9.761 19.672 6.83 34.74-3.152 16.198-12.207 34.446-25.501 51.383z"/>
    </g>
  </g>
</svg>
