<svg xmlns="http://www.w3.org/2000/svg" xmlns:sodipodi="http://sodipodi.sourceforge.net/DTD/sodipodi-0.dtd" xmlns:inkscape="http://www.inkscape.org/namespaces/inkscape" version="1.1" id="Capa_1" x="0" y="0" viewBox="0 0 452.713 462.32" xml:space="preserve" sodipodi:docname="get-points-node-icon.svg" width="452.713" height="462.32" inkscape:version="1.0.1 (3bc2e813f5, 2020-09-07)">
  <sodipodi:namedview pagecolor="#ffffff" bordercolor="#666666" borderopacity="1" objecttolerance="10" gridtolerance="10" guidetolerance="10" inkscape:pageopacity="0" inkscape:pageshadow="2" inkscape:window-width="1920" inkscape:window-height="970" id="namedview1013" showgrid="false" inkscape:pagecheckerboard="true" fit-margin-top="0" fit-margin-left="0" fit-margin-right="0" fit-margin-bottom="0" inkscape:zoom="1.063" inkscape:cx="212.017" inkscape:cy="203.645" inkscape:window-x="-12" inkscape:window-y="-12" inkscape:window-maximized="1" inkscape:current-layer="Capa_1"/>
  <polygon style="fill:#648093" points="256.092,222.83 447.139,139.113 256.092,55.396 65.046,139.113 " id="polygon926" transform="translate(-24.979 -24.84)"/>
  <path style="fill:#586f7f" d="M422.16 114.274L231.11 197.986l-47.326-20.735 133.244-58.386c4.002-1.753 4.002-7.43 0-9.184L183.785 51.286l47.326-20.735z" id="path928"/>
  <polygon style="fill:#648093" points="256.092,456.093 65.046,373.799 65.046,139.113 256.092,222.83 " id="polygon930" transform="translate(-24.979 -24.84)"/>
  <polygon style="fill:#586f7f" points="256.092,456.093 447.139,373.799 447.139,139.113 256.092,222.83 " id="polygon932" transform="translate(-24.979 -24.84)"/>
  <circle style="fill:#ffd527" cx="231.111" cy="197.99" r="23.04" id="circle934"/>
  <path style="fill:#f4ca19" d="M254.142 197.985c0 12.724-10.307 23.041-23.03 23.041a22.883 22.883 0 01-11.522-3.088c6.888-3.98 11.521-11.43 11.521-19.953s-4.632-15.962-11.52-19.943a22.88 22.88 0 0111.52-3.088c12.724 0 23.031 10.317 23.031 23.031z" id="path936"/>
  <circle style="fill:#ffd527" cx="231.111" cy="30.56" r="23.04" id="circle938"/>
  <path style="fill:#f4ca19" d="M254.145 30.551c0 12.724-10.307 23.041-23.03 23.041a22.883 22.883 0 01-11.522-3.088c6.888-3.98 11.521-11.43 11.521-19.953s-4.632-15.962-11.52-19.943a22.88 22.88 0 0111.52-3.088c12.723 0 23.031 10.317 23.031 23.031z" id="path940"/>
  <path id="path946" d="M1.447 447.982c.002-.095-.355.436-1.275 1.762-.059.586-.115 1.058-.172 1.59.797-1.936 1.444-3.225 1.447-3.352z"/>
  <circle style="fill:#ffd527" cx="422.161" cy="114.27" r="23.04" id="circle950"/>
  <path style="fill:#f4ca19" d="M445.193 114.268c0 12.724-10.307 23.041-23.03 23.041a22.883 22.883 0 01-11.522-3.088c6.888-3.98 11.521-11.43 11.521-19.953s-4.632-15.962-11.52-19.943a22.88 22.88 0 0111.52-3.088c12.724 0 23.031 10.317 23.031 23.031z" id="path952"/>
  <circle style="fill:#ffd527" cx="422.161" cy="349.49" r="23.04" id="circle954"/>
  <path style="fill:#f4ca19" d="M445.193 349.491c0 12.724-10.307 23.041-23.03 23.041a22.883 22.883 0 01-11.522-3.088c6.888-3.98 11.521-11.43 11.521-19.953s-4.632-15.962-11.52-19.943a22.88 22.88 0 0111.52-3.088c12.724 0 23.031 10.317 23.031 23.031z" id="path956"/>
  <circle style="fill:#ffd527" cx="231.111" cy="431.76" r="23.04" id="circle958"/>
  <path style="fill:#f4ca19" d="M254.142 431.76c0 12.723-10.307 23.04-23.03 23.04a22.883 22.883 0 01-11.522-3.088c6.888-3.98 11.521-11.43 11.521-19.953s-4.632-15.962-11.52-19.943a22.88 22.88 0 0111.52-3.088c12.724 0 23.031 10.317 23.031 23.031z" id="path960"/>
  <circle style="fill:#ffd527" cx="39.882" cy="349.49" r="23.04" id="circle962"/>
  <path style="fill:#f4ca19" d="M62.915 349.491c0 12.724-10.307 23.041-23.03 23.041a22.883 22.883 0 01-11.522-3.088c6.888-3.98 11.521-11.43 11.521-19.953s-4.632-15.962-11.52-19.943a22.88 22.88 0 0111.52-3.088c12.724 0 23.031 10.317 23.031 23.031z" id="path964"/>
  <circle style="fill:#ffd527" cx="39.882" cy="114.27" r="23.04" id="circle966"/>
  <path style="fill:#f4ca19" d="M62.915 114.268c0 12.724-10.307 23.041-23.03 23.041a22.883 22.883 0 01-11.522-3.088c6.888-3.98 11.521-11.43 11.521-19.953s-4.632-15.962-11.52-19.943a22.88 22.88 0 0111.52-3.088c12.724 0 23.031 10.317 23.031 23.031z" id="path968"/>
  <path d="M231.11 106.231a7.519 7.519 0 00-7.52 7.52v30.08a7.519 7.519 0 007.52 7.52 7.519 7.519 0 007.52-7.52v-30.08a7.519 7.519 0 00-7.52-7.52z" id="path970"/>
  <path id="path972" d="M231.11 0c-16.849 0-30.555 13.708-30.555 30.557 0 1.703.147 3.37.416 4.998L64.018 95.568c-5.595-7.202-14.33-11.85-24.135-11.85-16.848 0-30.555 13.707-30.555 30.555 0 14.32 9.903 26.364 23.219 29.659v175.904c-13.316 3.294-23.219 15.341-23.219 29.66 0 16.848 13.707 30.555 30.555 30.555 10.055 0 18.99-4.884 24.56-12.403l35.645 15.354a7.526 7.526 0 009.883-3.934 7.52 7.52 0 00-3.932-9.88l-35.9-15.463a30.418 30.418 0 00-1.121-13.434l20.388-10.02a7.521 7.521 0 00-6.633-13.5l-21.755 10.692a30.54 30.54 0 00-13.432-7.537V143.842c6.612-1.724 12.353-5.617 16.43-10.865l136.953 60.013a30.618 30.618 0 00-.416 4.998c0 14.255 9.814 26.261 23.039 29.62v19.97l-5.834 2.865a7.521 7.521 0 005.834 13.836v137.867c-6.567 1.667-12.289 5.47-16.389 10.62l-52.361-22.553a7.519 7.519 0 10-5.95 13.81l52.128 22.456a30.581 30.581 0 00-.467 5.285c0 16.848 13.706 30.556 30.554 30.556 16.85 0 30.557-13.708 30.557-30.556 0-1.802-.166-3.565-.467-5.282l136.444-58.773c5.574 7.485 14.488 12.344 24.517 12.344 16.847 0 30.555-13.708 30.555-30.557.002-14.254-9.81-26.257-23.033-29.617v-93.23a7.518 7.518 0 00-7.52-7.52 7.518 7.518 0 00-7.52 7.52v93.23a30.545 30.545 0 00-13.554 7.523l-21.633-10.63a7.522 7.522 0 00-6.633 13.5l20.23 9.94a30.446 30.446 0 00-1.446 9.284c0 1.462.111 2.897.31 4.305L255.016 412.77c-4.1-5.15-9.817-8.953-16.383-10.622V264.28a7.473 7.473 0 002.512.438 7.523 7.523 0 003.322-14.274l-5.836-2.867v-19.97c13.222-3.362 23.033-15.365 23.033-29.618 0-1.702-.147-3.369-.416-4.996l136.824-59.955c4.112 5.266 9.903 9.159 16.567 10.852v28.615a7.518 7.518 0 007.52 7.52 7.518 7.518 0 007.519-7.52v-28.615c13.223-3.36 23.035-15.365 23.035-29.618 0-16.848-13.707-30.554-30.555-30.554-9.777 0-18.49 4.623-24.086 11.79L261.25 35.554c.269-1.627.416-3.294.416-4.996C261.666 13.709 247.958 0 231.109 0zm0 15.041c8.555 0 15.515 6.96 15.515 15.516 0 8.555-6.96 15.513-15.516 15.513-8.555 0-15.515-6.958-15.515-15.513 0-8.556 6.96-15.516 15.515-15.516zm24.09 34.277l136.821 59.957a30.617 30.617 0 00-.414 4.998c0 1.702.146 3.37.416 4.997L255.2 179.227c-4.762-6.1-11.78-10.353-19.793-11.485a7.478 7.478 0 00-4.295-1.351 7.478 7.478 0 00-4.295 1.351c-8.012 1.132-15.03 5.383-19.793 11.48L70.035 119.196c.261-1.603.403-3.246.403-4.922 0-1.676-.142-3.318-.403-4.921l136.988-60.03c4.112 5.265 9.904 9.159 16.567 10.852v23.498a7.518 7.518 0 007.52 7.52 7.518 7.518 0 007.519-7.52v-23.5c6.665-1.693 12.458-5.587 16.57-10.854zM39.882 98.758c8.555 0 15.515 6.96 15.515 15.515a15.436 15.436 0 01-1.177 5.913c-.038.08-.084.156-.12.238-.024.057-.04.116-.064.174-2.427 5.408-7.853 9.191-14.154 9.191-8.555 0-15.514-6.96-15.514-15.516 0-8.555 6.959-15.515 15.514-15.515zm382.277 0c8.555 0 15.516 6.96 15.516 15.515s-6.96 15.516-15.516 15.516c-8.555 0-15.515-6.96-15.515-15.516 0-8.555 6.96-15.515 15.515-15.515zm-191.05 83.717c8.555 0 15.515 6.96 15.515 15.515 0 8.556-6.96 15.516-15.516 15.516-8.555 0-15.515-6.96-15.515-15.516 0-8.555 6.96-15.515 15.515-15.515zM39.882 333.98c8.555 0 15.515 6.961 15.515 15.516 0 8.556-6.96 15.516-15.515 15.516s-15.516-6.96-15.516-15.516c0-8.555 6.96-15.516 15.516-15.516zm382.277 0h.002c8.555 0 15.514 6.961 15.514 15.516 0 8.556-6.96 15.516-15.516 15.516-6.264 0-11.66-3.74-14.107-9.098a7.593 7.593 0 00-.278-.758c-.053-.123-.116-.237-.175-.355a15.412 15.412 0 01-.955-5.305c0-2.756.73-5.343 1.996-7.588a7.492 7.492 0 001.242-1.804c.022-.046.038-.093.06-.14 2.842-3.634 7.255-5.984 12.217-5.984zm-191.05 82.27c8.555 0 15.515 6.959 15.515 15.514 0 8.556-6.96 15.515-15.516 15.515-8.555 0-15.515-6.96-15.515-15.515s6.96-15.514 15.515-15.514z"/>
  <path d="M167.086 291.247a7.508 7.508 0 003.311-.772l26.997-13.266a7.52 7.52 0 00-6.633-13.499l-26.997 13.266a7.52 7.52 0 003.322 14.271z" id="path974"/>
  <path d="M146.833 293.674a7.522 7.522 0 00-10.066-3.433l-26.998 13.266a7.52 7.52 0 006.633 13.5L143.4 303.74a7.52 7.52 0 003.433-10.066z" id="path976"/>
  <path d="M271.466 263.71a7.52 7.52 0 00-6.633 13.5l26.997 13.265a7.521 7.521 0 006.633-13.499z" id="path978"/>
  <path d="M325.46 290.242a7.52 7.52 0 00-6.633 13.499l26.997 13.265a7.521 7.521 0 006.633-13.499z" id="path980"/>
</svg>
