<svg id="Capa_1" enable-background="new 0 0 512.001 512.001" height="512" viewBox="0 0 512.001 512.001" width="512" xmlns="http://www.w3.org/2000/svg">
  <g clip-rule="evenodd" fill-rule="evenodd">
    <path d="M256.001 139.6c7.472 0 14.236 3.027 19.13 7.921s7.921 11.658 7.921 19.13c0 12.03-8.375 19.956-16.991 28.111-17.274 16.347-35.06 33.18-35.06 70.637 0 13.807 11.193 25 25 25s25-11.193 25-25c0-16.296 9.76-25.533 19.239-34.504 16.638-15.747 32.811-31.053 32.811-64.243 0-21.274-8.625-40.537-22.57-54.481-13.943-13.945-33.206-22.571-54.48-22.571s-40.537 8.625-54.481 22.569-22.57 33.207-22.57 54.481c0 13.807 11.193 25 25 25s25-11.193 25-25a26.969 26.969 0 017.921-19.13 26.976 26.976 0 0119.13-7.92z" fill="#fff"/>
    <circle cx="256.001" cy="345.399" fill="#fff" transform="rotate(-67.48 256.121 345.347)" r="25"/>
    <path d="M256.001 320.399c13.807 0 25 11.193 25 25s-11.193 25-25 25-25-11.193-25-25 11.192-25 25-25zm0 89.601c31.759 0 61.591-8.236 87.493-22.672l-8.916-26.749 32.709 10.903c41.845-32.96 68.714-84.082 68.714-141.482 0-99.411-80.589-180-180-180s-180 80.589-180 180 80.588 180 180 180zm44.239-179.106c-9.479 8.971-19.239 18.208-19.239 34.504 0 13.807-11.193 25-25 25s-25-11.193-25-25c0-37.456 17.786-54.289 35.06-70.637 8.616-8.154 16.991-16.081 16.991-28.111 0-7.472-3.027-14.236-7.921-19.13s-11.658-7.921-19.13-7.921-14.236 3.027-19.13 7.921-7.921 11.658-7.921 19.13c0 13.807-11.193 25-25 25s-25-11.193-25-25c0-21.274 8.625-40.537 22.57-54.481S234.726 89.6 256.001 89.6s40.537 8.625 54.481 22.569 22.57 33.207 22.57 54.481c-.001 33.191-16.174 48.497-32.812 64.244z" fill="#88df8e"/>
    <path d="M436.001 230c0 57.4-26.869 108.522-68.714 141.482l43.76 14.587c40.113-39.852 64.954-95.057 64.954-156.069 0-121.503-98.497-220-220-220s-220 98.497-220 220 98.498 220 220 220c36.142 0 70.248-8.716 100.331-24.16l-12.837-38.512C317.592 401.764 287.76 410 256.001 410c-99.411 0-180-80.589-180-180s80.589-180 180-180 180 80.589 180 180z" fill="#fff"/>
    <path d="M461.857 403.005l-50.81-16.937-43.76-14.586-32.709-10.903 8.916 26.748 12.837 38.513 20.673 62.018 28.285-28.284 42.427 42.428 28.285-28.285-42.428-42.428z" fill="#fff"/>
  </g>
  <path d="M483.072 466.646l-35.356-35.356 21.213-21.213a10 10 0 00-3.909-16.558l-35.991-11.997c36.847-41.947 56.973-95.16 56.973-151.521 0-61.436-23.924-119.193-67.365-162.635C375.194 23.924 317.436 0 256.001 0c-44.941 0-88.493 12.98-125.947 37.538-4.618 3.028-5.907 9.228-2.879 13.846s9.227 5.909 13.846 2.879C175.207 31.848 214.966 20 256.001 20c115.794 0 210 94.206 210 210 0 54.304-20.46 105.409-57.735 144.601l-21.185-7.062C424.722 331.758 446 282.562 446 230c0-104.767-85.233-190-190-190S66 125.233 66 230s85.233 190 190 190c28.303 0 56.308-6.346 81.698-18.436l6.371 19.114C316.443 433.491 286.863 440 256.001 440c-115.794 0-210-94.206-210-210 0-41.039 11.847-80.797 34.26-114.975 3.028-4.619 1.74-10.817-2.879-13.846-4.619-3.03-10.817-1.74-13.846 2.878C38.98 141.503 26.001 185.053 26.001 230c0 61.435 23.924 119.193 67.365 162.635C136.807 436.076 194.566 460 256.001 460c33.039 0 64.745-6.816 94.431-20.238l17.086 51.258a10 10 0 0016.558 3.909l21.213-21.213 35.356 35.357c1.953 1.953 4.512 2.929 7.071 2.929s5.118-.976 7.071-2.929l28.284-28.284c3.906-3.906 3.906-10.238.001-14.143zM256.001 400c-93.738 0-170-76.262-170-170s76.262-170 170-170 170 76.262 170 170c0 50.654-22.08 97.823-60.764 130.257l-27.496-9.165a10.002 10.002 0 00-12.649 12.649l6.223 18.669A170.262 170.262 0 01256.001 400zm191.715 87.859l-35.356-35.357c-1.953-1.953-4.512-2.929-7.071-2.929s-5.118.976-7.071 2.929l-16.843 16.843-30.984-92.955 92.954 30.984-16.843 16.843c-3.905 3.906-3.905 10.237 0 14.143l35.356 35.356z"/>
  <path d="M256.001 310.399c-19.299 0-35 15.701-35 35s15.701 35 35 35 35-15.701 35-35-15.702-35-35-35zm0 50c-8.271 0-15-6.729-15-15s6.729-15 15-15 15 6.729 15 15-6.729 15-15 15zM317.553 105.099C301.11 88.657 279.25 79.601 256 79.601c-23.251 0-45.11 9.056-61.552 25.498-16.443 16.444-25.499 38.303-25.499 61.552 0 19.299 15.701 35 35 35s35-15.701 35-35c0-4.557 1.772-8.839 4.991-12.058 3.221-3.22 7.503-4.993 12.06-4.993s8.84 1.773 12.059 4.993a16.935 16.935 0 014.992 12.058c0 7.353-5.269 12.712-13.865 20.848-17.898 16.939-38.186 36.138-38.186 77.9 0 19.299 15.701 35 35 35s35-15.701 35-35c0-11.412 6.123-17.787 16.113-27.241 16.845-15.942 35.938-34.011 35.938-71.506 0-23.251-9.055-45.11-25.498-61.553zm-24.187 118.532c-9.964 9.43-22.365 21.167-22.365 41.767 0 8.271-6.729 15-15 15s-15-6.729-15-15c0-33.153 14.798-47.158 31.934-63.374 9.43-8.924 20.117-19.039 20.117-35.374 0-9.899-3.854-19.204-10.85-26.2-6.996-6.997-16.302-10.851-26.201-10.851-9.898 0-19.203 3.853-26.201 10.85-6.996 6.997-10.85 16.302-10.85 26.201 0 8.271-6.729 15-15 15s-15-6.729-15-15c0-17.907 6.976-34.744 19.642-47.41 12.664-12.665 29.501-19.64 47.409-19.64s34.745 6.975 47.41 19.641c12.665 12.665 19.641 29.502 19.641 47.41-.001 28.886-13.757 41.905-29.686 56.98zM100.433 84.438a9.975 9.975 0 007.075-2.93c3.905-3.905 3.905-10.237 0-14.142-3.906-3.905-10.236-3.905-14.143 0l-.005.005c-3.905 3.905-3.902 10.234.003 14.139a9.97 9.97 0 007.07 2.928z"/>
</svg>
