<svg version="1.1" id="Layer_1" xmlns="http://www.w3.org/2000/svg" x="0" y="0" viewBox="0 0 512 512" style="enable-background:new 0 0 512 512" xml:space="preserve">
  <g transform="translate(1)">
    <polygon style="fill:#ddd" points="365.933,145.067 365.933,8.533 7.533,8.533 7.533,366.933 144.067,366.933 144.067,503.467 
		502.467,503.467 502.467,145.067 	"/>
    <polygon style="fill:#9c81ee" points="144.067,366.933 365.933,366.933 365.933,145.067 144.067,145.067 	"/>
    <path d="M370.2 153.6h-12.8v-12.8c0-5.12 3.413-8.533 8.533-8.533 3.413 0 6.827 1.707 7.68 5.12 2.56 1.707 5.12 4.267 5.12 7.68 0 5.12-3.413 8.533-8.533 8.533zM365.933 112.64c-5.12 0-8.533-3.413-8.533-8.533V94.72c0-5.12 3.413-8.533 8.533-8.533s8.533 3.413 8.533 8.533v9.387c.001 5.12-3.413 8.533-8.533 8.533zm0-45.227c-5.12 0-8.533-3.413-8.533-8.533v-9.387c0-5.12 3.413-8.533 8.533-8.533s8.533 3.413 8.533 8.533v9.387c.001 4.267-3.413 8.533-8.533 8.533zM365.933 21.333c-3.413 0-6.827-1.707-7.68-5.12-2.56-1.707-5.12-4.267-5.12-7.68 0-5.12 3.413-8.533 8.533-8.533h12.8v12.8c.001 5.12-3.413 8.533-8.533 8.533zM325.827 17.067h-9.387c-5.12 0-8.533-3.413-8.533-8.533S311.32 0 316.44 0h9.387c5.12 0 8.533 3.413 8.533 8.533s-4.267 8.534-8.533 8.534zm-45.227 0h-8.533c-5.12 0-8.533-3.413-8.533-8.533S266.947 0 272.067 0h8.533c5.12 0 8.533 3.413 8.533 8.533s-3.413 8.534-8.533 8.534zm-44.373 0h-9.387c-5.12 0-8.533-3.413-8.533-8.533S221.72 0 226.84 0h9.387c5.12 0 8.533 3.413 8.533 8.533s-4.267 8.534-8.533 8.534zm-45.227 0h-9.387c-5.12 0-8.533-3.413-8.533-8.533S176.493 0 181.613 0H191c5.12 0 8.533 3.413 8.533 8.533s-3.413 8.534-8.533 8.534zm-44.373 0h-9.387c-5.12 0-8.533-3.413-8.533-8.533S132.12 0 137.24 0h9.387c5.12 0 8.533 3.413 8.533 8.533s-4.267 8.534-8.533 8.534zm-45.227 0h-8.533c-5.12 0-8.533-3.413-8.533-8.533S87.747 0 92.867 0h8.533c5.12 0 8.533 3.413 8.533 8.533s-3.413 8.534-8.533 8.534zm-44.373 0H47.64c-5.12 0-8.533-3.413-8.533-8.533S42.52 0 47.64 0h9.387c5.12 0 8.533 3.413 8.533 8.533s-4.267 8.534-8.533 8.534zM7.533 21.333C2.413 21.333-1 17.92-1 12.8V0h12.8c5.12 0 8.533 3.413 8.533 8.533 0 3.413-1.707 6.827-5.12 7.68-.853 3.414-4.266 5.12-7.68 5.12zM7.533 335.36c-5.12 0-8.533-3.413-8.533-8.533v-9.387c0-5.12 3.413-8.533 8.533-8.533s8.533 3.413 8.533 8.533v9.387c.001 4.266-3.413 8.533-8.533 8.533zm0-45.227C2.413 290.133-1 286.72-1 281.6v-8.533c0-5.12 3.413-8.533 8.533-8.533s8.533 3.413 8.533 8.533v8.533c.001 5.12-3.413 8.533-8.533 8.533zm0-44.373c-5.12 0-8.533-3.413-8.533-8.533v-9.387c0-5.12 3.413-8.533 8.533-8.533s8.533 3.413 8.533 8.533v9.387c.001 4.266-3.413 8.533-8.533 8.533zm0-45.227C2.413 200.533-1 197.12-1 192v-9.387c0-5.12 3.413-8.533 8.533-8.533s8.533 3.413 8.533 8.533V192c.001 5.12-3.413 8.533-8.533 8.533zm0-44.373c-5.12 0-8.533-3.413-8.533-8.533v-9.387c0-5.12 3.413-8.533 8.533-8.533s8.533 3.413 8.533 8.533v9.387c.001 4.266-3.413 8.533-8.533 8.533zm0-45.227C2.413 110.933-1 107.52-1 102.4v-8.533c0-5.12 3.413-8.533 8.533-8.533s8.533 3.413 8.533 8.533v8.533c.001 5.12-3.413 8.533-8.533 8.533zm0-44.373C2.413 66.56-1 63.147-1 58.027V48.64c0-5.12 3.413-8.533 8.533-8.533s8.533 3.413 8.533 8.533v9.387c.001 4.266-3.413 8.533-8.533 8.533zM11.8 375.467H-1v-12.8c0-5.12 3.413-8.533 8.533-8.533 3.413 0 6.827 1.707 7.68 5.12 2.56 1.707 5.12 4.267 5.12 7.68 0 5.119-3.413 8.533-8.533 8.533zM103.107 375.467H93.72c-5.12 0-8.533-3.413-8.533-8.533S88.6 358.4 93.72 358.4h9.387c5.12 0 8.533 3.413 8.533 8.533s-3.413 8.534-8.533 8.534zm-45.227 0h-9.387c-5.12 0-8.533-3.413-8.533-8.533s3.413-8.533 8.533-8.533h9.387c5.12 0 8.533 3.413 8.533 8.533s-4.266 8.533-8.533 8.533zM144.067 379.733c-3.413 0-6.827-1.707-7.68-5.12-2.56-1.707-5.12-4.267-5.12-7.68 0-5.12 3.413-8.533 8.533-8.533h12.8v12.8c0 5.12-3.413 8.533-8.533 8.533zM144.067 471.04c-5.12 0-8.533-3.413-8.533-8.533v-9.387c0-5.12 3.413-8.533 8.533-8.533 5.12 0 8.533 3.413 8.533 8.533v9.387c0 5.12-3.413 8.533-8.533 8.533zm0-45.227c-5.12 0-8.533-3.413-8.533-8.533v-9.387c0-5.12 3.413-8.533 8.533-8.533 5.12 0 8.533 3.413 8.533 8.533v9.387c0 4.267-3.413 8.533-8.533 8.533zM148.333 512h-12.8v-12.8c0-5.12 3.413-8.533 8.533-8.533 3.413 0 6.827 1.707 7.68 5.12 2.56 1.707 5.12 4.267 5.12 7.68.001 5.12-3.413 8.533-8.533 8.533zM462.36 512h-9.387c-5.12 0-8.533-3.413-8.533-8.533 0-5.12 3.413-8.533 8.533-8.533h9.387c5.12 0 8.533 3.413 8.533 8.533 0 5.12-4.266 8.533-8.533 8.533zm-45.227 0H408.6c-5.12 0-8.533-3.413-8.533-8.533 0-5.12 3.413-8.533 8.533-8.533h8.533c5.12 0 8.533 3.413 8.533 8.533.001 5.12-3.413 8.533-8.533 8.533zm-44.373 0h-9.387c-5.12 0-8.533-3.413-8.533-8.533 0-5.12 3.413-8.533 8.533-8.533h9.387c5.12 0 8.533 3.413 8.533 8.533 0 5.12-4.266 8.533-8.533 8.533zm-45.227 0h-9.387c-5.12 0-8.533-3.413-8.533-8.533 0-5.12 3.413-8.533 8.533-8.533h9.387c5.12 0 8.533 3.413 8.533 8.533.001 5.12-3.413 8.533-8.533 8.533zm-44.373 0h-9.387c-5.12 0-8.533-3.413-8.533-8.533 0-5.12 3.413-8.533 8.533-8.533h9.387c5.12 0 8.533 3.413 8.533 8.533 0 5.12-4.266 8.533-8.533 8.533zm-45.227 0H229.4c-5.12 0-8.533-3.413-8.533-8.533 0-5.12 3.413-8.533 8.533-8.533h8.533c5.12 0 8.533 3.413 8.533 8.533.001 5.12-3.413 8.533-8.533 8.533zm-44.373 0h-9.387c-5.12 0-8.533-3.413-8.533-8.533 0-5.12 3.413-8.533 8.533-8.533h9.387c5.12 0 8.533 3.413 8.533 8.533 0 5.12-4.266 8.533-8.533 8.533zM511 512h-12.8c-5.12 0-8.533-3.413-8.533-8.533 0-3.413 1.707-6.827 5.12-7.68 1.707-2.56 4.267-5.12 7.68-5.12 5.12 0 8.533 3.413 8.533 8.533V512zM502.467 471.893c-5.12 0-8.533-3.413-8.533-8.533v-9.387c0-5.12 3.413-8.533 8.533-8.533 5.12 0 8.533 3.413 8.533 8.533v9.387c0 4.267-3.413 8.533-8.533 8.533zm0-45.226c-5.12 0-8.533-3.413-8.533-8.533V409.6c0-5.12 3.413-8.533 8.533-8.533 5.12 0 8.533 3.413 8.533 8.533v8.533c0 5.12-3.413 8.534-8.533 8.534zm0-44.374c-5.12 0-8.533-3.413-8.533-8.533v-9.387c0-5.12 3.413-8.533 8.533-8.533 5.12 0 8.533 3.413 8.533 8.533v9.387c0 4.267-3.413 8.533-8.533 8.533zm0-45.226c-5.12 0-8.533-3.413-8.533-8.533v-9.387c0-5.12 3.413-8.533 8.533-8.533 5.12 0 8.533 3.413 8.533 8.533v9.387c0 5.119-3.413 8.533-8.533 8.533zm0-44.374c-5.12 0-8.533-3.413-8.533-8.533v-9.387c0-5.12 3.413-8.533 8.533-8.533 5.12 0 8.533 3.413 8.533 8.533v9.387c0 4.267-3.413 8.533-8.533 8.533zm0-45.226c-5.12 0-8.533-3.413-8.533-8.533V230.4c0-5.12 3.413-8.533 8.533-8.533 5.12 0 8.533 3.413 8.533 8.533v8.533c0 5.12-3.413 8.534-8.533 8.534zm0-44.374c-5.12 0-8.533-3.413-8.533-8.533v-9.387c0-5.12 3.413-8.533 8.533-8.533 5.12 0 8.533 3.413 8.533 8.533v9.387c0 4.267-3.413 8.533-8.533 8.533zM502.467 157.867c-3.413 0-6.827-1.707-7.68-5.12-2.56-1.707-5.12-4.267-5.12-7.68 0-5.12 3.413-8.533 8.533-8.533H511v12.8c0 5.119-3.413 8.533-8.533 8.533zM461.507 153.6h-9.387c-5.12 0-8.533-3.413-8.533-8.533 0-5.12 3.413-8.533 8.533-8.533h9.387c5.12 0 8.533 3.413 8.533 8.533 0 5.12-3.413 8.533-8.533 8.533zm-45.227 0h-9.387c-5.12 0-8.533-3.413-8.533-8.533 0-5.12 3.413-8.533 8.533-8.533h9.387c5.12 0 8.533 3.413 8.533 8.533 0 5.12-4.266 8.533-8.533 8.533z"/>
    <path d="M374.467 375.467H135.533V136.533h238.933v238.934zM152.6 358.4h204.8V153.6H152.6v204.8z"/>
  </g>
</svg>
