<svg xmlns="http://www.w3.org/2000/svg" version="1.1" id="Capa_1" x="0" y="0" viewBox="0 0 510.912 510.912" style="enable-background:new 0 0 510.912 510.912" xml:space="preserve" width="512" height="512">
  <g>
    <g>
      <path style="fill:#ff80bf" d="M503.456 255.456l-80-64v32H301.402a56.298 56.298 0 00-13.945-13.945V87.456h32l-64-80-64 80h32v122.055a56.298 56.298 0 00-13.945 13.945H87.456v-32l-80 64 80 64v-32H209.51a56.298 56.298 0 0013.945 13.945v122.055h-32l64 80 64-80h-32V301.401a56.298 56.298 0 0013.945-13.945h122.055v32l80.001-64zm-248 24c-13.255 0-24-10.745-24-24s10.745-24 24-24 24 10.745 24 24-10.745 24-24 24z"/>
      <path style="fill:#ff80bf" d="M247.456 439.456V278.085a24.058 24.058 0 01-14.629-14.629H71.456l-37-29.6-27 21.6 80 64v-32H209.51a56.298 56.298 0 0013.945 13.945v122.055h-32l64 80 21.6-27-29.599-37z"/>
    </g>
    <g>
      <path d="M508.141 249.6l-80-64c-4.821-3.856-12.185-.298-12.185 5.856v24.5H305.162a63.482 63.482 0 00-10.206-10.206v-26.294c0-4.143-3.358-7.5-7.5-7.5s-7.5 3.357-7.5 7.5v30.055a7.499 7.499 0 003.208 6.15 48.603 48.603 0 0112.086 12.087 7.499 7.499 0 006.15 3.208h122.055a7.5 7.5 0 007.5-7.5V207.06l60.494 48.396-60.494 48.396v-16.396a7.5 7.5 0 00-7.5-7.5H301.401a7.499 7.499 0 00-6.15 3.208 48.62 48.62 0 01-12.086 12.087 7.499 7.499 0 00-3.208 6.15v122.055a7.5 7.5 0 007.5 7.5h16.396l-48.396 60.494-48.396-60.494h16.396a7.5 7.5 0 007.5-7.5V301.401a7.499 7.499 0 00-3.208-6.15 48.603 48.603 0 01-12.086-12.087 7.499 7.499 0 00-6.15-3.208H87.456a7.5 7.5 0 00-7.5 7.5v16.396l-60.494-48.396 60.494-48.396v16.396a7.5 7.5 0 007.5 7.5h122.055a7.499 7.499 0 006.15-3.208 48.62 48.62 0 0112.086-12.087 7.499 7.499 0 003.208-6.15V87.456a7.5 7.5 0 00-7.5-7.5h-16.396l48.396-60.494 48.396 60.494h-16.396a7.5 7.5 0 00-7.5 7.5v56.5c0 4.143 3.358 7.5 7.5 7.5s7.5-3.357 7.5-7.5v-49h24.5c6.154 0 9.713-7.364 5.856-12.186l-64-80c-2.956-3.694-8.756-3.694-11.713 0l-64 80c-3.856 4.821-.297 12.186 5.856 12.186h24.5V205.75a63.523 63.523 0 00-10.206 10.206H94.956v-24.5c0-6.153-7.364-9.713-12.185-5.856l-80 64c-3.695 2.955-3.695 8.758 0 11.713l80 64c4.821 3.856 12.185.297 12.185-5.856v-24.5H205.75a63.482 63.482 0 0010.206 10.206v110.794h-24.5c-6.154 0-9.713 7.364-5.856 12.186l64 80c2.956 3.694 8.757 3.694 11.713 0l64-80a7.501 7.501 0 00-5.857-12.186h-24.5V305.162a63.523 63.523 0 0010.206-10.206h110.794v24.5c0 6.152 7.365 9.716 12.185 5.856l80-64c3.695-2.954 3.695-8.758 0-11.712z"/>
      <path d="M223.956 255.456c0 17.369 14.131 31.5 31.5 31.5s31.5-14.131 31.5-31.5-14.131-31.5-31.5-31.5-31.5 14.131-31.5 31.5zm48 0c0 9.099-7.402 16.5-16.5 16.5s-16.5-7.401-16.5-16.5 7.402-16.5 16.5-16.5 16.5 7.401 16.5 16.5z"/>
    </g>
  </g>
</svg>
