<svg xmlns="http://www.w3.org/2000/svg" xmlns:sodipodi="http://sodipodi.sourceforge.net/DTD/sodipodi-0.dtd" xmlns:inkscape="http://www.inkscape.org/namespaces/inkscape" viewBox="0 0 511.998 511.998" version="1.1" id="svg845" sodipodi:docname="multiply-node-icon.svg" inkscape:version="1.0.1 (3bc2e813f5, 2020-09-07)">
  <sodipodi:namedview pagecolor="#ffffff" bordercolor="#666666" borderopacity="1" objecttolerance="10" gridtolerance="10" guidetolerance="10" inkscape:pageopacity="0" inkscape:pageshadow="2" inkscape:window-width="1833" inkscape:window-height="1010" id="namedview847" showgrid="false" inkscape:zoom="1.426" inkscape:cx="255.999" inkscape:cy="255.999" inkscape:window-x="44" inkscape:window-y="0" inkscape:window-maximized="0" inkscape:current-layer="svg845"/>
  <circle cx="256.002" cy="256.001" r="247.612" fill="#7dd2f0" id="circle833"/>
  <path d="M64.319 255.998c0-127.294 96.063-232.134 219.645-246.028a250.216 250.216 0 00-27.965-1.582c-136.75 0-247.61 110.859-247.61 247.61s110.858 247.61 247.61 247.61c9.457 0 18.783-.549 27.965-1.582C160.382 488.134 64.319 383.293 64.319 255.998z" opacity=".1" id="path835"/>
  <path fill="#fff" d="M392.864 329.8L319.063 256l73.802-73.802-63.063-63.063L256 192.936l-73.801-73.801-63.063 63.063 73.801 73.801-73.802 73.802 63.063 63.063L256 319.062l73.801 73.801z" id="path837"/>
  <path d="M255.999 511.998c-68.381 0-132.668-26.629-181.019-74.979C26.629 388.666 0 324.378 0 255.998c0-36.75 7.624-72.228 22.662-105.45 14.525-32.09 35.169-60.412 61.359-84.178a8.388 8.388 0 0111.85.575 8.388 8.388 0 01-.575 11.85c-49.898 45.282-78.518 109.868-78.518 177.202 0 63.899 24.883 123.972 70.067 169.155 45.183 45.182 105.256 70.065 169.155 70.065 54.064 0 105.073-17.594 147.511-50.884a8.39 8.39 0 0110.356 13.202c-45.422 35.63-100.012 54.463-157.868 54.463zM116.4 59.876a8.39 8.39 0 01-4.798-15.279 8.391 8.391 0 0111.607 1.867 8.391 8.391 0 01-2.079 11.944 8.34 8.34 0 01-4.73 1.468z" id="path839"/>
  <path d="M433.487 437.015a8.362 8.362 0 01-5.849-2.376 8.388 8.388 0 01-.163-11.863c43.687-44.908 67.745-104.138 67.745-166.777 0-63.898-24.883-123.971-70.067-169.154S319.897 16.779 255.998 16.779c-48.378 0-94.988 14.377-134.79 41.575a8.39 8.39 0 11-9.466-13.854C154.345 15.389 204.228 0 255.998 0c68.38 0 132.668 26.629 181.019 74.981s74.981 112.638 74.981 181.018c0 67.034-25.748 130.418-72.498 178.476a8.358 8.358 0 01-6.013 2.54z" id="path841"/>
  <path d="M176.267 398.795l-63.063-63.062a8.388 8.388 0 010-11.864l67.87-67.87-67.87-67.87a8.388 8.388 0 010-11.863l63.063-63.063a8.388 8.388 0 0111.864 0l67.87 67.87 67.868-67.87a8.388 8.388 0 0111.864 0l63.063 63.063a8.388 8.388 0 010 11.864L330.926 256l67.87 67.87a8.388 8.388 0 010 11.863l-63.063 63.063a8.388 8.388 0 01-11.864 0L256 330.926l-67.869 67.87a8.388 8.388 0 01-11.863 0zM131.001 329.8l51.199 51.199 67.87-67.87a8.388 8.388 0 0111.863 0l67.87 67.87 51.198-51.2-67.87-67.869a8.388 8.388 0 010-11.863l67.87-67.87-51.198-51.199-67.87 67.87a8.388 8.388 0 01-11.864 0l-67.87-67.87-51.198 51.199 67.87 67.87a8.388 8.388 0 010 11.863z" id="path843"/>
</svg>
