<svg version="1.1" id="Capa_1" xmlns="http://www.w3.org/2000/svg" x="0" y="0" viewBox="0 0 511.999 511.999" style="enable-background:new 0 0 511.999 511.999" xml:space="preserve">
  <polygon style="fill:#EFEFEF" points="260.125,25.287 48.81,236.613 48.8,236.613 10.039,275.384 221.364,486.71 471.451,236.613 
	"/>
  <g>
    <path style="fill:#00CED1" d="M501.96 432.137c0 20.48-16.605 37.075-37.085 37.075-20.47 0-37.075-16.595-37.075-37.075 0-20.48 37.075-72.975 37.075-72.975s37.085 52.495 37.085 72.975z"/>
    <polygon style="fill:#00CED1" points="471.451,236.613 221.364,486.71 10.039,275.384 48.8,236.613 48.81,236.613 	"/>
  </g>
  <path d="M479.49 242.608c.104-.14.212-.275.309-.421.097-.147.183-.297.272-.448.078-.132.161-.26.233-.395.081-.153.151-.309.224-.465.066-.142.138-.28.198-.425.063-.152.113-.306.169-.461.055-.155.115-.308.163-.466.047-.156.082-.314.121-.472.04-.16.085-.317.117-.48.036-.185.059-.371.085-.557.019-.139.046-.274.059-.414.065-.661.065-1.326 0-1.986-.013-.137-.039-.269-.058-.405-.026-.19-.049-.379-.086-.567-.031-.16-.075-.313-.114-.47-.04-.162-.075-.323-.124-.483-.047-.155-.104-.303-.159-.454-.056-.159-.108-.317-.174-.474-.058-.14-.126-.273-.19-.41-.075-.161-.147-.323-.232-.481-.068-.129-.148-.25-.222-.374-.093-.157-.182-.315-.284-.468-.089-.134-.19-.26-.286-.389-.099-.134-.192-.27-.298-.4a9.596 9.596 0 00-.566-.626c-.033-.034-.062-.072-.096-.106L267.225 18.19a10.042 10.042 0 00-14.198 0L41.979 229.247a8.789 8.789 0 00-.278.268L2.94 268.287c-3.92 3.921-3.919 10.276 0 14.197L214.265 493.81a10.04 10.04 0 0014.198 0L478.55 243.713l.016-.018c.227-.229.444-.468.649-.717.098-.121.183-.247.275-.37zM260.125 39.485l187.09 187.089H73.047L260.125 39.485zm-38.761 433.027L24.235 275.383l28.724-28.731h394.256l-225.851 225.86zM464.874 349.122a10.035 10.035 0 00-8.199 4.248c-6.498 9.201-38.914 56.241-38.914 78.767 0 25.978 21.136 47.114 47.114 47.114 25.984 0 47.124-21.136 47.124-47.114 0-22.528-32.425-69.567-38.924-78.768a10.043 10.043 0 00-8.201-4.247zm.001 110.05c-14.907 0-27.036-12.128-27.036-27.036 0-9.799 13.946-34.918 27.039-55.059 13.095 20.133 27.043 45.248 27.043 55.059 0 14.908-12.132 27.036-27.046 27.036z"/>
  <path d="M161.017 261.018H72.51c-5.545 0-10.039 4.495-10.039 10.039 0 5.545 4.495 10.039 10.039 10.039h88.508c5.545 0 10.039-4.495 10.039-10.039s-4.495-10.039-10.04-10.039zM194.142 260.781c-12.919 0-12.941 20.078 0 20.078 12.919.001 12.941-20.078 0-20.078z"/>
</svg>
