<svg height="511" viewBox="-115 1 511 511.999" width="511" xmlns="http://www.w3.org/2000/svg">
  <path d="M144.863 181.316c0-67.308-.004-53.332.008-71.726.008-12.473 9.129-22.57 21.598-22.563 12.472.012 21.504 10.125 21.496 22.594v71.586c37.746-10.035 66.558-44.43 66.558-85.336 0-48.77-39.535-88.305-88.304-88.305-48.774 0-88.309 39.536-88.309 88.305 0 41.047 29.008 75.547 66.953 85.445zm0 0" fill="#fcd486"/>
  <path d="M107.914 95.871c0-43.652 31.68-79.906 73.305-87.031a89.107 89.107 0 00-15-1.274c-48.774 0-88.309 39.536-88.309 88.305 0 41.047 29.008 75.547 66.953 85.445v-14.199c-22.207-16.066-36.949-41.988-36.949-71.246zm0 0" fill="#feca57"/>
  <path d="M214.824 95.871c0-26.844-21.762-48.605-48.605-48.605-26.848 0-48.606 21.761-48.606 48.605 0 18.781 11.657 35.063 27.246 43.156 0-20.484 0-11.832.012-29.437.008-12.473 9.129-22.57 21.598-22.563 12.469.012 21.504 10.125 21.496 22.594v29.207c15.379-8.164 26.86-24.332 26.86-42.957zm0 0" fill="#f4b537"/>
  <path d="M147.684 98.246c-.043-.789-.07-1.578-.07-2.375 0-21.605 14.105-39.91 33.605-46.234a48.565 48.565 0 00-15-2.367c-26.844 0-48.606 21.761-48.606 48.605 0 18.777 11.657 35.063 27.25 43.156 0-20.488-.004-11.836.008-29.441.004-4.137 1.016-8.012 2.813-11.344zm0 0" fill="#e59d1f"/>
  <path d="M231.855 273.191l-35.972 47.22c-2.235 2.933-6.918 1.355-6.918-2.333V107.621c.012-12.465-10.024-22.582-22.496-22.594-12.469-.007-22.586 10.09-22.598 22.563-.012 19.844-.008.62-.008 159.707v-21.875c0-12.453-10.425-22.55-22.883-22.55-12.453 0-22.55 10.097-22.55 22.55v6.082c0-12.453-10.098-22.55-22.551-22.55s-22.55 10.097-22.55 22.55v4.562c0-12.453-10.099-22.55-22.552-22.55-12.457 0-22.55 10.097-22.55 22.55v35.211h.07l-.07 95.266c-.04 40.68 32.351 37.687 32.332 70.398l-.012 25.625c0 17.18 10.633 21.207 17.652 22h109.485c24.238 0 20.964-21.53 20.964-36.171h-.003c.132-15.07 1.496-27.645 9.007-35.082 0 0 14.25-14.114 14.364-14.223v-.004c9.922-9.824 16.28-23.305 16.359-23.469l44.488-101.812c11.012-23.89-22.343-46.746-41.008-20.614zm0 0" fill="#ffcdbf"/>
  <g fill="#ffbeab">
    <path d="M70.547 482.566l.012-25.625c.02-32.71-32.371-29.718-32.332-70.398l.066-95.266h-.066v-35.21c0-6.692 2.918-12.704 7.546-16.833a22.456 22.456 0 00-15-5.718c-12.453 0-22.55 10.097-22.55 22.554v35.207h.07l-.07 95.266c-.04 40.68 32.355 37.691 32.336 70.398l-.012 25.625c0 17.18 10.633 21.207 17.652 22h30c-7.015-.793-17.652-4.82-17.652-22zm0 0M105.93 307.875c4.14 0 7.5-3.36 7.5-7.5v-76.207c-8.739 3.105-15 11.45-15 21.254v54.953c0 4.14 3.36 7.5 7.5 7.5zm0 0M151.363 307.875c4.14 0 7.5-3.36 7.5-7.5V86.34c-8.73 3.113-14.984 11.45-14.992 21.25-.012 18.898-.008-2.367-.008 137.832v-.008 54.961a7.5 7.5 0 007.5 7.5zm0 0"/>
    <path d="M68.328 300.375v-70.121c-8.742 3.105-15.004 11.445-15.004 21.25v48.871a7.503 7.503 0 0015.004 0zm0 0M261.371 263.645c-.012-.008-.027-.012-.043-.02-9.832-4.469-21.367-1.766-29.465 9.55 0 .005-.004.009-.008.016l-35.972 47.22c-1.938 2.546-5.711 1.69-6.684-.985l.028.144c.289 1.594 3.285 16.512 15.039 16.512 6.636 0 11.808-3.777 15.312-7.465l42.277-55.426c1.657-2.32 3.43-4.25 5.278-5.828a23.883 23.883 0 00-5.762-3.718zm0 0"/>
  </g>
  <path d="M20.09 431.25c7.402 7.656 12.754 13.191 12.746 25.621l-.012 25.629c0 16.723 9.086 27.734 24.309 29.453.281.031.562.047.844.047h40.23a7.5 7.5 0 007.5-7.5c0-4.145-3.355-7.5-7.5-7.5H58.43c-7.332-.969-10.606-5.457-10.606-14.496l.012-25.625c.012-18.5-9.004-27.828-16.957-36.055-8.262-8.547-15.395-15.93-15.375-34.344.07-98.777 0-113.882 0-130.48 0-8.297 6.75-15.05 15.05-15.05 8.301 0 15.051 6.75 15.051 15.05v44.309a7.5 7.5 0 1015 0v-48.872c0-8.296 6.754-15.05 15.051-15.05 8.301 0 15.055 6.754 15.055 15.05v48.872a7.5 7.5 0 1015 0v-54.954c0-8.3 6.75-15.05 15.05-15.05 8.298 0 15.052 6.75 15.052 15.05v54.954c0 4.14 3.687 7.5 7.832 7.5 4.14 0 7.5-3.36 7.5-7.5 0-134.008-.008-82.403.007-192.782.004-2.66.743-5.187 1.828-7.175 7.45-13.68 28.278-8.395 28.266 7.203v210.457c0 4.875 3.102 9.195 7.723 10.754 4.617 1.558 9.707 0 12.66-3.875l35.973-47.223.136-.188c7.059-9.878 15.84-9.765 21.703-6.359 5.84 3.39 10.329 10.93 6.391 19.477-.02.043-.043.09-.062.136l-44.442 101.7c-7.59 15.734-16.746 23.171-29.176 35.48-19.14 18.961-5.578 56.832-14.648 66.106-1.934 1.976-5.313 2.98-10.043 2.98h-34.25a7.5 7.5 0 100 15h34.25c8.918 0 15.906-2.52 20.766-7.488 8.28-8.465 7.996-21.301 7.773-31.617-.223-9.938-.324-27.356 6.71-34.32 12.673-12.552 23.962-21.977 32.255-39.884.02-.043.039-.09.062-.136l44.461-101.75c7.461-16.274-.64-31.758-12.511-38.653-11.887-6.906-29.282-6.324-41.375 10.512l-29.356 38.54V186.71c32.836-10.938 57.656-39.2 63.961-73.477a7.5 7.5 0 10-14.754-2.714c-5.012 27.234-23.879 49.976-49.207 60.226v-27.695c16.055-10.274 25.86-27.977 25.86-47.242 0-30.938-25.172-56.11-56.106-56.11-30.937 0-56.11 25.168-56.11 56.11 0 19.46 9.954 37.257 26.255 47.492l-.004 27.62c-30.434-12.066-50.95-41.683-50.95-75.112C85.191 51.25 121.441 15 165.996 15c37.703 0 70.902 26.695 78.938 63.477.886 4.046 4.882 6.609 8.93 5.726s6.609-4.883 5.726-8.93C250.16 32.117 211.676 0 165.996 0c-52.828 0-95.808 42.98-95.808 95.809 0 41.625 26.847 78.246 65.953 91.035v32.703a29.86 29.86 0 00-15.383-4.242c-10.528 0-19.809 5.441-25.176 13.656-5.309-4.711-12.289-7.574-19.93-7.574-10.117 0-19.09 5.031-24.535 12.722-5.383-5.058-12.617-8.16-20.566-8.16C13.98 225.95.5 239.43.5 256.004v130.469c-.023 24.48 10.852 35.734 19.59 44.777zm116.05-307.176c-24.706-26.031-6.183-69.37 29.856-69.37 22.664 0 41.106 18.437 41.106 41.105 0 10.5-3.977 20.37-10.856 27.84v-16.083c.012-16.578-13.434-30.09-29.992-30.105h-.02c-16.582 0-30.074 13.484-30.082 30.059zm0 0"/>
</svg>
