<svg height="512" viewBox="0 0 512 512" width="512" xmlns="http://www.w3.org/2000/svg">
  <path d="M187.887 7.566H17.324c-5.3 0-9.601 4.297-9.601 9.602v349.027a9.6 9.6 0 009.601 9.602h170.563c5.3 0 9.601-4.297 9.601-9.602V17.168c-.004-5.305-4.3-9.602-9.601-9.602zm0 0" fill="#54a0ff"/>
  <path d="M37.723 366.195V17.168c0-5.305 4.3-9.602 9.601-9.602h-30a9.6 9.6 0 00-9.601 9.602v349.027a9.6 9.6 0 009.601 9.602h30c-5.3 0-9.601-4.297-9.601-9.602zm0 0" fill="#338def"/>
  <path d="M463.938 245.719h-52.004c-2.516 0-3.778 3.043-1.997 4.824l26 26a2.822 2.822 0 003.997 0l26-26c1.78-1.781.523-4.824-1.997-4.824zm0 0M261.832 46.352l-26 26a2.827 2.827 0 000 4l26 26c1.781 1.78 4.824.52 4.824-2v-52c0-2.52-3.043-3.778-4.824-2zm0 0" fill="#e4eaf8"/>
  <path d="M432.172 250.543c-1.781-1.781-.52-4.824 1.996-4.824h-22.234c-2.516 0-3.778 3.043-1.996 4.824l26 26a2.822 2.822 0 003.996 0l9.12-9.117zm0 0M258.066 76.352a2.827 2.827 0 010-4l8.59-8.59v-15.41c0-2.52-3.043-3.782-4.824-2l-26 26a2.827 2.827 0 000 4l26 26c1.781 1.78 4.824.52 4.824-2v-15.41zm0 0" fill="#c7d2e5"/>
  <path d="M463.715 238.152h-18.64c-3.5-92.816-78.333-167.68-171.137-171.222V48.285c0-9.18-11.13-13.8-17.63-7.3l-26 26c-4.027 4.023-4.027 10.578 0 14.605l26 25.996c6.485 6.488 17.63 1.91 17.63-7.3V81.94c84.53 3.528 152.644 71.668 156.125 156.211h-18.348c-9.192 0-13.793 11.141-7.305 17.63l26 26c4.031 4.027 10.578 4.027 14.606 0l26.004-26c6.488-6.493 1.886-17.63-7.305-17.63zM258.934 89l-14.715-14.715 14.715-14.715zm178.78 178.871L423 253.152h29.43zm0 0M151.797 497c-4.145 0-7.5 3.355-7.5 7.5s3.355 7.5 7.5 7.5h.101c4.145 0 7.5-3.355 7.5-7.5s-3.355-7.5-7.5-7.5zm0 0M186.855 497c-4.144 0-7.5 3.355-7.5 7.5s3.356 7.5 7.5 7.5h.102c4.14 0 7.5-3.355 7.5-7.5s-3.36-7.5-7.5-7.5zm0 0M221.914 497c-4.144 0-7.45 3.355-7.45 7.5s3.407 7.5 7.548 7.5a7.5 7.5 0 100-15zm0 0M504.5 319.617a7.497 7.497 0 00-7.5 7.5v.102c0 4.14 3.355 7.449 7.5 7.449s7.5-3.406 7.5-7.55a7.5 7.5 0 00-7.5-7.5zm0 0M143.77 410.738c0-4.14-3.36-7.449-7.5-7.449-4.145 0-7.5 3.406-7.5 7.55 0 4.145 3.355 7.5 7.5 7.5a7.5 7.5 0 007.5-7.5zm0 0M136.27 473.355a7.497 7.497 0 00-7.5 7.5v.102a7.5 7.5 0 1015 0v-.102a7.5 7.5 0 00-7.5-7.5zm0 0M143.77 445.797c0-4.14-3.36-7.45-7.5-7.45-4.145 0-7.5 3.407-7.5 7.551 0 4.145 3.355 7.5 7.5 7.5a7.5 7.5 0 007.5-7.5zm0 0M504.5 354.672a7.5 7.5 0 00-7.5 7.504v.097c0 4.145 3.355 7.5 7.5 7.5s7.5-3.355 7.5-7.5v-.097a7.503 7.503 0 00-7.5-7.504zm0 0M362.145 497c-4.145 0-7.5 3.355-7.5 7.5s3.355 7.5 7.5 7.5h.101c4.145 0 7.5-3.355 7.5-7.5s-3.355-7.5-7.5-7.5zm0 0M337.574 322.238c4.145 0 7.453-3.36 7.453-7.504 0-4.14-3.41-7.5-7.55-7.5a7.5 7.5 0 00-7.5 7.5 7.5 7.5 0 007.5 7.504zm0 0M397.203 497c-4.14 0-7.45 3.355-7.45 7.5s3.407 7.5 7.552 7.5c4.144 0 7.5-3.355 7.5-7.5s-3.356-7.5-7.5-7.5zm0 0M372.633 322.238c4.144 0 7.449-3.36 7.449-7.504 0-4.14-3.406-7.5-7.55-7.5a7.502 7.502 0 000 15.004zm0 0M327.086 497c-4.14 0-7.5 3.355-7.5 7.5s3.36 7.5 7.5 7.5h.101c4.145 0 7.5-3.355 7.5-7.5s-3.355-7.5-7.5-7.5zm0 0M302.516 322.238c4.144 0 7.453-3.36 7.453-7.504 0-4.14-3.406-7.5-7.551-7.5s-7.5 3.36-7.5 7.5a7.5 7.5 0 007.5 7.504zm0 0M256.973 497c-4.145 0-7.453 3.355-7.453 7.5s3.41 7.5 7.55 7.5c4.145 0 7.5-3.355 7.5-7.5s-3.355-7.5-7.5-7.5zm0 0M267.46 322.238a7.503 7.503 0 000-15.004h-.1a7.5 7.5 0 00-7.5 7.5 7.5 7.5 0 007.5 7.504zm0 0M292.031 497c-4.144 0-7.453 3.355-7.453 7.5s3.41 7.5 7.55 7.5c4.145 0 7.5-3.355 7.5-7.5s-3.355-7.5-7.5-7.5zm0 0M232.402 322.238a7.5 7.5 0 007.5-7.504 7.5 7.5 0 00-7.5-7.5h-.101a7.5 7.5 0 00-7.5 7.5 7.5 7.5 0 007.5 7.504zm0 0M432.262 497c-4.145 0-7.45 3.355-7.45 7.5s3.407 7.5 7.547 7.5a7.5 7.5 0 100-15zm0 0M467.32 497c-4.144 0-7.453 3.355-7.453 7.5s3.41 7.5 7.551 7.5c4.144 0 7.5-3.355 7.5-7.5s-3.356-7.5-7.5-7.5zm0 0M407.691 322.238c4.141 0 7.45-3.36 7.45-7.504 0-4.14-3.407-7.5-7.551-7.5a7.502 7.502 0 000 15.004zm0 0M504.5 389.734a7.497 7.497 0 00-7.5 7.5v.098c0 4.145 3.355 7.453 7.5 7.453s7.5-3.41 7.5-7.55a7.5 7.5 0 00-7.5-7.5zm0 0M442.75 322.238a7.5 7.5 0 007.5-7.504 7.5 7.5 0 00-7.5-7.5h-.102a7.5 7.5 0 00-7.5 7.5 7.5 7.5 0 007.5 7.504zm0 0M506.906 507.074a7.499 7.499 0 10-10.387-10.82l-.18.176c-2.929 2.93-2.948 7.695-.019 10.625a7.494 7.494 0 005.313 2.207 7.44 7.44 0 005.273-2.188zm0 0M504.5 424.79a7.5 7.5 0 00-7.5 7.503v.098c0 4.144 3.355 7.449 7.5 7.449s7.5-3.406 7.5-7.547a7.503 7.503 0 00-7.5-7.504zm0 0M504.5 459.848a7.497 7.497 0 00-7.5 7.5v.101c0 4.14 3.355 7.45 7.5 7.45s7.5-3.407 7.5-7.551a7.5 7.5 0 00-7.5-7.5zm0 0M477.809 322.238c4.14 0 7.449-3.36 7.449-7.504 0-4.14-3.406-7.5-7.551-7.5s-7.5 3.36-7.5 7.5a7.5 7.5 0 007.5 7.504zm0 0M204.766 366.129V209.117a7.5 7.5 0 00-7.5-7.5 7.5 7.5 0 00-7.504 7.5V366.13c0 1.16-.942 2.101-2.098 2.101h-67.781a7.5 7.5 0 00-7.5 7.5c0 4.145 3.355 7.5 7.5 7.5h67.781c9.43 0 17.102-7.668 17.102-17.101zm0 0M17.102 383.23h67.78a7.5 7.5 0 100-15h-67.78A2.105 2.105 0 0115 366.13V17.102c0-1.16.941-2.102 2.102-2.102h170.562c1.156 0 2.102.941 2.102 2.102v157.015a7.5 7.5 0 1015 0V17.102c0-9.43-7.672-17.102-17.102-17.102H17.102C7.672 0 0 7.672 0 17.102v349.03c0 9.43 7.672 17.098 17.102 17.098zm0 0"/>
</svg>
