<svg xmlns="http://www.w3.org/2000/svg" xmlns:sodipodi="http://sodipodi.sourceforge.net/DTD/sodipodi-0.dtd" xmlns:inkscape="http://www.inkscape.org/namespaces/inkscape" height="512" viewBox="0 0 512 512" width="512" version="1.1" id="svg905" sodipodi:docname="temp.svg" inkscape:version="1.0.1 (3bc2e813f5, 2020-09-07)">
  <sodipodi:namedview pagecolor="#ffffff" bordercolor="#666666" borderopacity="1" objecttolerance="10" gridtolerance="10" guidetolerance="10" inkscape:pageopacity="0" inkscape:pageshadow="2" inkscape:window-width="1920" inkscape:window-height="970" id="namedview907" showgrid="false" inkscape:zoom=".756" inkscape:cx="408.346" inkscape:cy="345.982" inkscape:window-x="-12" inkscape:window-y="-12" inkscape:window-maximized="1" inkscape:current-layer="svg905"/>
  <path d="M187.887 7.566H17.324c-5.3 0-9.601 4.297-9.601 9.602v349.027a9.6 9.6 0 009.601 9.602h170.563c5.3 0 9.601-4.297 9.601-9.602V17.168c-.004-5.305-4.3-9.602-9.601-9.602zm0 0" fill="gold" id="path833"/>
  <path d="M37.723 366.195V17.168c0-5.305 4.3-9.602 9.601-9.602h-30a9.6 9.6 0 00-9.601 9.602v349.027a9.6 9.6 0 009.601 9.602h30c-5.3 0-9.601-4.297-9.601-9.602zm0 0" fill="gold" id="path835"/>
  <path d="M463.938 245.719h-52.004c-2.516 0-3.778 3.043-1.997 4.824l26 26a2.822 2.822 0 003.997 0l26-26c1.78-1.781.523-4.824-1.997-4.824zm0 0" fill="#e4eaf8" id="path837"/>
  <path d="M261.832 46.352l-26 26a2.827 2.827 0 000 4l26 26c1.781 1.78 4.824.52 4.824-2v-52c0-2.52-3.043-3.778-4.824-2zm0 0" fill="#e4eaf8" id="path839"/>
  <path d="M432.172 250.543c-1.781-1.781-.52-4.824 1.996-4.824h-22.234c-2.516 0-3.778 3.043-1.996 4.824l26 26a2.822 2.822 0 003.996 0l9.12-9.117zm0 0" fill="#c7d2e5" id="path841"/>
  <path d="M258.066 76.352a2.827 2.827 0 010-4l8.59-8.59v-15.41c0-2.52-3.043-3.782-4.824-2l-26 26a2.827 2.827 0 000 4l26 26c1.781 1.78 4.824.52 4.824-2v-15.41zm0 0" fill="#c7d2e5" id="path843"/>
  <path d="M463.715 238.152h-18.64c-3.5-92.816-78.333-167.68-171.137-171.222V48.285c0-9.18-11.13-13.8-17.63-7.3l-26 26c-4.027 4.023-4.027 10.578 0 14.605l26 25.996c6.485 6.488 17.63 1.91 17.63-7.3V81.94c84.53 3.528 152.644 71.668 156.125 156.211h-18.348c-9.192 0-13.793 11.141-7.305 17.63l26 26c4.031 4.027 10.578 4.027 14.606 0l26.004-26c6.488-6.493 1.886-17.63-7.305-17.63zM258.934 89l-14.715-14.715 14.715-14.715zm178.78 178.871L423 253.152h29.43zm0 0" id="path845"/>
  <path d="M151.797 497c-4.145 0-7.5 3.355-7.5 7.5s3.355 7.5 7.5 7.5h.101c4.145 0 7.5-3.355 7.5-7.5s-3.355-7.5-7.5-7.5zm0 0" id="path847"/>
  <path d="M186.855 497c-4.144 0-7.5 3.355-7.5 7.5s3.356 7.5 7.5 7.5h.102c4.14 0 7.5-3.355 7.5-7.5s-3.36-7.5-7.5-7.5zm0 0" id="path849"/>
  <path d="M221.914 497c-4.144 0-7.45 3.355-7.45 7.5s3.407 7.5 7.548 7.5a7.5 7.5 0 100-15zm0 0" id="path851"/>
  <path d="M504.5 319.617a7.497 7.497 0 00-7.5 7.5v.102c0 4.14 3.355 7.449 7.5 7.449s7.5-3.406 7.5-7.55a7.5 7.5 0 00-7.5-7.5zm0 0" id="path853"/>
  <path d="M143.77 410.738c0-4.14-3.36-7.449-7.5-7.449-4.145 0-7.5 3.406-7.5 7.55 0 4.145 3.355 7.5 7.5 7.5a7.5 7.5 0 007.5-7.5zm0 0" id="path855"/>
  <path d="M136.27 473.355a7.497 7.497 0 00-7.5 7.5v.102a7.5 7.5 0 1015 0v-.102a7.5 7.5 0 00-7.5-7.5zm0 0" id="path857"/>
  <path d="M143.77 445.797c0-4.14-3.36-7.45-7.5-7.45-4.145 0-7.5 3.407-7.5 7.551 0 4.145 3.355 7.5 7.5 7.5a7.5 7.5 0 007.5-7.5zm0 0" id="path859"/>
  <path d="M504.5 354.672a7.5 7.5 0 00-7.5 7.504v.097c0 4.145 3.355 7.5 7.5 7.5s7.5-3.355 7.5-7.5v-.097a7.503 7.503 0 00-7.5-7.504zm0 0" id="path861"/>
  <path d="M362.145 497c-4.145 0-7.5 3.355-7.5 7.5s3.355 7.5 7.5 7.5h.101c4.145 0 7.5-3.355 7.5-7.5s-3.355-7.5-7.5-7.5zm0 0" id="path863"/>
  <path d="M337.574 322.238c4.145 0 7.453-3.36 7.453-7.504 0-4.14-3.41-7.5-7.55-7.5a7.5 7.5 0 00-7.5 7.5 7.5 7.5 0 007.5 7.504zm0 0" id="path865"/>
  <path d="M397.203 497c-4.14 0-7.45 3.355-7.45 7.5s3.407 7.5 7.552 7.5c4.144 0 7.5-3.355 7.5-7.5s-3.356-7.5-7.5-7.5zm0 0" id="path867"/>
  <path d="M372.633 322.238c4.144 0 7.449-3.36 7.449-7.504 0-4.14-3.406-7.5-7.55-7.5a7.502 7.502 0 000 15.004zm0 0" id="path869"/>
  <path d="M327.086 497c-4.14 0-7.5 3.355-7.5 7.5s3.36 7.5 7.5 7.5h.101c4.145 0 7.5-3.355 7.5-7.5s-3.355-7.5-7.5-7.5zm0 0" id="path871"/>
  <path d="M302.516 322.238c4.144 0 7.453-3.36 7.453-7.504 0-4.14-3.406-7.5-7.551-7.5s-7.5 3.36-7.5 7.5a7.5 7.5 0 007.5 7.504zm0 0" id="path873"/>
  <path d="M256.973 497c-4.145 0-7.453 3.355-7.453 7.5s3.41 7.5 7.55 7.5c4.145 0 7.5-3.355 7.5-7.5s-3.355-7.5-7.5-7.5zm0 0" id="path875"/>
  <path d="M267.46 322.238a7.503 7.503 0 000-15.004h-.1a7.5 7.5 0 00-7.5 7.5 7.5 7.5 0 007.5 7.504zm0 0" id="path877"/>
  <path d="M292.031 497c-4.144 0-7.453 3.355-7.453 7.5s3.41 7.5 7.55 7.5c4.145 0 7.5-3.355 7.5-7.5s-3.355-7.5-7.5-7.5zm0 0" id="path879"/>
  <path d="M232.402 322.238a7.5 7.5 0 007.5-7.504 7.5 7.5 0 00-7.5-7.5h-.101a7.5 7.5 0 00-7.5 7.5 7.5 7.5 0 007.5 7.504zm0 0" id="path881"/>
  <path d="M432.262 497c-4.145 0-7.45 3.355-7.45 7.5s3.407 7.5 7.547 7.5a7.5 7.5 0 100-15zm0 0" id="path883"/>
  <path d="M467.32 497c-4.144 0-7.453 3.355-7.453 7.5s3.41 7.5 7.551 7.5c4.144 0 7.5-3.355 7.5-7.5s-3.356-7.5-7.5-7.5zm0 0" id="path885"/>
  <path d="M407.691 322.238c4.141 0 7.45-3.36 7.45-7.504 0-4.14-3.407-7.5-7.551-7.5a7.502 7.502 0 000 15.004zm0 0" id="path887"/>
  <path d="M504.5 389.734a7.497 7.497 0 00-7.5 7.5v.098c0 4.145 3.355 7.453 7.5 7.453s7.5-3.41 7.5-7.55a7.5 7.5 0 00-7.5-7.5zm0 0" id="path889"/>
  <path d="M442.75 322.238a7.5 7.5 0 007.5-7.504 7.5 7.5 0 00-7.5-7.5h-.102a7.5 7.5 0 00-7.5 7.5 7.5 7.5 0 007.5 7.504zm0 0" id="path891"/>
  <path d="M506.906 507.074a7.499 7.499 0 10-10.387-10.82l-.18.176c-2.929 2.93-2.948 7.695-.019 10.625a7.494 7.494 0 005.313 2.207 7.44 7.44 0 005.273-2.188zm0 0" id="path893"/>
  <path d="M504.5 424.79a7.5 7.5 0 00-7.5 7.503v.098c0 4.144 3.355 7.449 7.5 7.449s7.5-3.406 7.5-7.547a7.503 7.503 0 00-7.5-7.504zm0 0" id="path895"/>
  <path d="M504.5 459.848a7.497 7.497 0 00-7.5 7.5v.101c0 4.14 3.355 7.45 7.5 7.45s7.5-3.407 7.5-7.551a7.5 7.5 0 00-7.5-7.5zm0 0" id="path897"/>
  <path d="M477.809 322.238c4.14 0 7.449-3.36 7.449-7.504 0-4.14-3.406-7.5-7.551-7.5s-7.5 3.36-7.5 7.5a7.5 7.5 0 007.5 7.504zm0 0" id="path899"/>
  <path d="M204.766 366.129V209.117a7.5 7.5 0 00-7.5-7.5 7.5 7.5 0 00-7.504 7.5V366.13c0 1.16-.942 2.101-2.098 2.101h-67.781a7.5 7.5 0 00-7.5 7.5c0 4.145 3.355 7.5 7.5 7.5h67.781c9.43 0 17.102-7.668 17.102-17.101zm0 0" id="path901"/>
  <path d="M17.102 383.23h67.78a7.5 7.5 0 100-15h-67.78a2.105 2.105 0 01-2.102-2.1V17.102c0-1.16.941-2.102 2.102-2.102h170.562c1.156 0 2.102.941 2.102 2.102v157.015a7.5 7.5 0 1015 0V17.102c0-9.43-7.672-17.102-17.102-17.102H17.102C7.672 0 0 7.672 0 17.102v349.03c0 9.43 7.672 17.098 17.102 17.098zm0 0" id="path903"/>
  <rect style="fill:#ddd;stroke-width:11.25;stroke-linecap:round;stroke-linejoin:round;fill-opacity:1" id="rect1045" width="372.01" height="193.638" x="134.897" y="313.436"/>
  <path d="M187.887 7.566H17.324c-5.3 0-9.601 4.297-9.601 9.602v349.027a9.6 9.6 0 009.601 9.602h170.563c5.3 0 9.601-4.297 9.601-9.602V17.168c-.004-5.305-4.3-9.602-9.601-9.602zm0 0" fill="gold" id="path833-6" style="stroke-width:0.999997"/>
  <path d="M37.723 366.195V17.168c0-5.305 4.3-9.602 9.601-9.602h-30a9.6 9.6 0 00-9.601 9.602v349.027a9.6 9.6 0 009.601 9.602h30c-5.3 0-9.601-4.297-9.601-9.602zm0 0" fill="gold" id="path835-7" style="stroke-width:0.999997"/>
  <path d="M463.938 245.719h-52.004c-2.516 0-3.778 3.043-1.996 4.824l26 26a2.822 2.822 0 003.996 0l26-26c1.78-1.781.523-4.824-1.996-4.824zm0 0" fill="#e4eaf8" id="path837-5" style="stroke-width:0.999997"/>
  <path d="M261.832 46.352l-26 26a2.827 2.827 0 000 4l26 26c1.781 1.78 4.824.52 4.824-2v-52c0-2.52-3.043-3.778-4.824-2zm0 0" fill="#e4eaf8" id="path839-5" style="stroke-width:0.999997"/>
  <path d="M432.172 250.543c-1.781-1.781-.52-4.824 1.996-4.824h-22.234c-2.516 0-3.778 3.043-1.996 4.824l26 26a2.822 2.822 0 003.996 0l9.12-9.117zm0 0" fill="#c7d2e5" id="path841-3" style="stroke-width:0.999997"/>
  <path d="M258.066 76.352a2.827 2.827 0 010-4l8.59-8.59v-15.41c0-2.52-3.043-3.782-4.824-2l-26 26a2.827 2.827 0 000 4l26 26c1.781 1.78 4.824.52 4.824-2v-15.41zm0 0" fill="#c7d2e5" id="path843-1" style="stroke-width:0.999997"/>
  <path d="M463.715 238.152h-18.64c-3.5-92.816-78.333-167.68-171.137-171.222V48.285c0-9.18-11.13-13.8-17.63-7.3l-26 26c-4.027 4.023-4.027 10.577 0 14.605l26 25.996c6.485 6.488 17.63 1.91 17.63-7.3V81.94c84.53 3.528 152.644 71.668 156.125 156.211h-18.348c-9.192 0-13.793 11.141-7.305 17.63l26 26c4.031 4.027 10.578 4.027 14.606 0l26.004-26c6.488-6.493 1.886-17.63-7.305-17.63zM258.934 89l-14.715-14.715 14.715-14.715zm178.78 178.871L423 253.152h29.43zm0 0" id="path845-2" style="stroke-width:0.999997"/>
  <path d="M151.797 497a7.497 7.497 0 00-7.5 7.5c0 4.145 3.355 7.5 7.5 7.5h.101c4.145 0 7.5-3.355 7.5-7.5s-3.355-7.5-7.5-7.5zm0 0" id="path847-7" style="stroke-width:0.999997"/>
  <path d="M186.855 497a7.497 7.497 0 00-7.5 7.5c0 4.145 3.356 7.5 7.5 7.5h.102a7.5 7.5 0 007.5-7.5 7.5 7.5 0 00-7.5-7.5zm0 0" id="path849-6" style="stroke-width:0.999997"/>
  <path d="M221.914 497c-4.144 0-7.45 3.355-7.45 7.5s3.407 7.5 7.548 7.5a7.5 7.5 0 100-15zm0 0" id="path851-1" style="stroke-width:0.999997"/>
  <path d="M504.5 319.617a7.497 7.497 0 00-7.5 7.5v.102c0 4.14 3.355 7.449 7.5 7.449s7.5-3.406 7.5-7.55a7.5 7.5 0 00-7.5-7.5zm0 0" id="path853-3" style="stroke-width:0.999997"/>
  <path d="M143.77 410.738c0-4.14-3.36-7.449-7.5-7.449-4.145 0-7.5 3.406-7.5 7.55 0 4.145 3.355 7.5 7.5 7.5a7.5 7.5 0 007.5-7.5zm0 0" id="path855-6" style="stroke-width:0.999997"/>
  <path d="M136.27 473.355a7.497 7.497 0 00-7.5 7.5v.102a7.5 7.5 0 1015 0v-.102a7.5 7.5 0 00-7.5-7.5zm0 0" id="path857-9" style="stroke-width:0.999997"/>
  <path d="M143.77 445.797c0-4.14-3.36-7.45-7.5-7.45-4.145 0-7.5 3.407-7.5 7.551 0 4.145 3.355 7.5 7.5 7.5a7.5 7.5 0 007.5-7.5zm0 0" id="path859-2" style="stroke-width:0.999997"/>
  <path d="M504.5 354.672a7.5 7.5 0 00-7.5 7.504v.097c0 4.145 3.355 7.5 7.5 7.5s7.5-3.355 7.5-7.5v-.097a7.503 7.503 0 00-7.5-7.504zm0 0" id="path861-9" style="stroke-width:0.999997"/>
  <path d="M362.145 497a7.497 7.497 0 00-7.5 7.5c0 4.145 3.355 7.5 7.5 7.5h.101c4.145 0 7.5-3.355 7.5-7.5s-3.355-7.5-7.5-7.5zm0 0" id="path863-0" style="stroke-width:0.999997"/>
  <path d="M337.574 322.238c4.145 0 7.453-3.36 7.453-7.504 0-4.14-3.41-7.5-7.55-7.5a7.5 7.5 0 00-7.5 7.5 7.5 7.5 0 007.5 7.504zm0 0" id="path865-4" style="stroke-width:0.999997"/>
  <path d="M397.203 497c-4.14 0-7.45 3.355-7.45 7.5s3.407 7.5 7.552 7.5c4.144 0 7.5-3.355 7.5-7.5s-3.356-7.5-7.5-7.5zm0 0" id="path867-9" style="stroke-width:0.999997"/>
  <path d="M372.633 322.238c4.144 0 7.449-3.36 7.449-7.504 0-4.14-3.406-7.5-7.55-7.5a7.502 7.502 0 000 15.004zm0 0" id="path869-8" style="stroke-width:0.999997"/>
  <path d="M327.086 497a7.5 7.5 0 00-7.5 7.5 7.5 7.5 0 007.5 7.5h.102c4.144 0 7.5-3.355 7.5-7.5s-3.356-7.5-7.5-7.5zm0 0" id="path871-4" style="stroke-width:0.999997"/>
  <path d="M302.516 322.238c4.144 0 7.453-3.36 7.453-7.504 0-4.14-3.406-7.5-7.551-7.5a7.5 7.5 0 00-7.5 7.5 7.5 7.5 0 007.5 7.504zm0 0" id="path873-4" style="stroke-width:0.999997"/>
  <path d="M256.973 497c-4.145 0-7.453 3.355-7.453 7.5s3.41 7.5 7.55 7.5c4.145 0 7.5-3.355 7.5-7.5s-3.355-7.5-7.5-7.5zm0 0" id="path875-9" style="stroke-width:0.999997"/>
  <path d="M267.46 322.238a7.503 7.503 0 000-15.004h-.1a7.5 7.5 0 00-7.5 7.5 7.5 7.5 0 007.5 7.504zm0 0" id="path877-8" style="stroke-width:0.999997"/>
  <path d="M292.031 497c-4.144 0-7.453 3.355-7.453 7.5s3.41 7.5 7.55 7.5c4.145 0 7.5-3.355 7.5-7.5s-3.355-7.5-7.5-7.5zm0 0" id="path879-2" style="stroke-width:0.999997"/>
  <path d="M232.402 322.238a7.5 7.5 0 007.5-7.504 7.5 7.5 0 00-7.5-7.5h-.101a7.5 7.5 0 00-7.5 7.5 7.5 7.5 0 007.5 7.504zm0 0" id="path881-1" style="stroke-width:0.999997"/>
  <path d="M432.262 497c-4.145 0-7.45 3.355-7.45 7.5s3.407 7.5 7.547 7.5a7.5 7.5 0 100-15zm0 0" id="path883-1" style="stroke-width:0.999997"/>
  <path d="M467.32 497c-4.144 0-7.453 3.355-7.453 7.5s3.41 7.5 7.551 7.5c4.145 0 7.5-3.355 7.5-7.5s-3.355-7.5-7.5-7.5zm0 0" id="path885-9" style="stroke-width:0.999997"/>
  <path d="M407.691 322.238c4.141 0 7.45-3.36 7.45-7.504 0-4.14-3.407-7.5-7.551-7.5a7.502 7.502 0 000 15.004zm0 0" id="path887-9" style="stroke-width:0.999997"/>
  <path d="M504.5 389.734a7.497 7.497 0 00-7.5 7.5v.098c0 4.145 3.355 7.453 7.5 7.453s7.5-3.41 7.5-7.55a7.5 7.5 0 00-7.5-7.5zm0 0" id="path889-1" style="stroke-width:0.999997"/>
  <path d="M442.75 322.238a7.5 7.5 0 007.5-7.504 7.5 7.5 0 00-7.5-7.5h-.102a7.5 7.5 0 00-7.5 7.5 7.5 7.5 0 007.5 7.504zm0 0" id="path891-9" style="stroke-width:0.999997"/>
  <path d="M506.906 507.074a7.499 7.499 0 10-10.387-10.82l-.18.176c-2.929 2.93-2.948 7.695-.019 10.625a7.494 7.494 0 005.313 2.207 7.44 7.44 0 005.273-2.188zm0 0" id="path893-9" style="stroke-width:0.999997"/>
  <path d="M504.5 424.79a7.5 7.5 0 00-7.5 7.503v.098c0 4.144 3.355 7.449 7.5 7.449s7.5-3.406 7.5-7.547a7.503 7.503 0 00-7.5-7.504zm0 0" id="path895-2" style="stroke-width:0.999997"/>
  <path d="M504.5 459.848a7.497 7.497 0 00-7.5 7.5v.101c0 4.14 3.355 7.45 7.5 7.45s7.5-3.407 7.5-7.551a7.5 7.5 0 00-7.5-7.5zm0 0" id="path897-6" style="stroke-width:0.999997"/>
  <path d="M477.809 322.238c4.14 0 7.449-3.36 7.449-7.504 0-4.14-3.406-7.5-7.551-7.5a7.5 7.5 0 00-7.5 7.5 7.5 7.5 0 007.5 7.504zm0 0" id="path899-4" style="stroke-width:0.999997"/>
  <path d="M204.766 366.129V209.117a7.5 7.5 0 00-7.5-7.5 7.5 7.5 0 00-7.504 7.5V366.13c0 1.16-.942 2.101-2.098 2.101h-67.781a7.5 7.5 0 00-7.5 7.5c0 4.145 3.355 7.5 7.5 7.5h67.781c9.43 0 17.102-7.668 17.102-17.101zm0 0" id="path901-7" style="stroke-width:0.999997"/>
  <path d="M17.102 383.23h67.78a7.5 7.5 0 100-15h-67.78a2.105 2.105 0 01-2.102-2.1V17.102c0-1.16.941-2.102 2.102-2.102h170.562c1.156 0 2.102.941 2.102 2.102v157.015a7.5 7.5 0 1015 0V17.102c0-9.43-7.672-17.102-17.102-17.102H17.102C7.672 0 0 7.672 0 17.102v349.03c0 9.43 7.672 17.098 17.102 17.098zm0 0" id="path903-5" style="stroke-width:0.999997"/>
</svg>
