<svg version="1.1" id="Capa_1" xmlns="http://www.w3.org/2000/svg" x="0" y="0" viewBox="0 0 512 512" style="enable-background:new 0 0 512 512" xml:space="preserve">
  <rect x="7.515" y="31.562" style="fill:#EDEBEC" width="472.924" height="472.924"/>
  <polygon style="fill:#DCD7D8" points="31.562,480.438 31.562,31.562 7.515,31.562 7.515,504.485 480.438,504.485 480.438,480.438 
	"/>
  <rect x="7.515" y="288.063" style="fill:#55D3FA" width="216.423" height="216.423"/>
  <polygon style="fill:#56C4F0" points="31.562,480.438 31.562,288.063 7.515,288.063 7.515,504.485 223.937,504.485 
	223.937,480.438 "/>
  <path d="M223.937 280.548h-39.076a7.516 7.516 0 000 15.03h31.562v201.393H15.029V295.577h133.26a7.516 7.516 0 000-15.03H7.515A7.516 7.516 0 000 288.062v216.423A7.516 7.516 0 007.515 512h216.423a7.516 7.516 0 007.515-7.515V288.063a7.517 7.517 0 00-7.516-7.515zM7.515 39.076a7.516 7.516 0 007.515-7.515V7.515a7.516 7.516 0 00-15.03 0v24.047a7.515 7.515 0 007.515 7.514zM504.485 496.971h-24.047a7.515 7.515 0 100 15.03h24.047a7.515 7.515 0 100-15.03zM480.438 39.076h24.047a7.515 7.515 0 100-15.03h-16.532V7.515a7.515 7.515 0 10-15.03 0v24.047a7.515 7.515 0 007.515 7.514zM7.515 269.526a7.516 7.516 0 007.515-7.515v-2.004a7.516 7.516 0 00-15.03.001v2.004a7.515 7.515 0 007.515 7.514zM7.515 245.443a7.516 7.516 0 007.515-7.515v-3.68a7.516 7.516 0 00-15.03.001v3.68a7.515 7.515 0 007.515 7.514zM7.515 219.683a7.516 7.516 0 007.515-7.515v-3.68a7.516 7.516 0 00-15.03 0v3.68a7.516 7.516 0 007.515 7.515zM7.515 116.646a7.516 7.516 0 007.515-7.515v-3.68a7.516 7.516 0 00-15.03 0v3.68a7.516 7.516 0 007.515 7.515zM7.515 193.924a7.516 7.516 0 007.515-7.515v-3.68a7.516 7.516 0 00-15.03 0v3.68a7.515 7.515 0 007.515 7.515zM7.515 142.405a7.516 7.516 0 007.515-7.515v-3.679a7.516 7.516 0 00-15.03 0v3.679a7.515 7.515 0 007.515 7.515zM7.515 168.164a7.516 7.516 0 007.515-7.515v-3.68A7.516 7.516 0 000 156.97v3.68a7.514 7.514 0 007.515 7.514zM7.515 90.887a7.516 7.516 0 007.515-7.515v-3.68a7.516 7.516 0 00-15.03 0v3.68a7.516 7.516 0 007.515 7.515zM7.515 65.127a7.516 7.516 0 007.515-7.515v-2.004A7.516 7.516 0 000 55.609v2.004a7.515 7.515 0 007.515 7.514zM171.836 39.076h4.008a7.516 7.516 0 000-15.03h-4.008a7.516 7.516 0 000 15.03zM143.781 39.076h4.008a7.516 7.516 0 000-15.03h-4.008a7.516 7.516 0 000 15.03zM199.89 39.076h4.008a7.516 7.516 0 000-15.03h-4.008a7.516 7.516 0 000 15.03zM31.562 39.076h4.008a7.516 7.516 0 000-15.03h-4.008a7.516 7.516 0 000 15.03zM59.616 39.076h4.008a7.516 7.516 0 000-15.03h-4.008a7.516 7.516 0 000 15.03zM115.726 39.076h4.008a7.516 7.516 0 000-15.03h-4.008a7.516 7.516 0 000 15.03zM87.671 39.076h4.008a7.516 7.516 0 000-15.03h-4.008a7.516 7.516 0 000 15.03zM267.522 31.562a7.515 7.515 0 00-7.515-7.515H256a7.516 7.516 0 000 15.03h4.008a7.515 7.515 0 007.514-7.515zM231.953 24.047h-4.008a7.516 7.516 0 000 15.03h4.008a7.516 7.516 0 000-15.03zM351.687 31.562a7.515 7.515 0 00-7.515-7.515h-4.008a7.515 7.515 0 100 15.03h4.008a7.516 7.516 0 007.515-7.515zM379.742 31.562a7.515 7.515 0 00-7.515-7.515h-4.008a7.515 7.515 0 100 15.03h4.008a7.516 7.516 0 007.515-7.515zM428.337 39.076a7.515 7.515 0 100-15.03h-4.008a7.515 7.515 0 100 15.03h4.008zM456.391 24.047h-4.008a7.515 7.515 0 100 15.03h4.008a7.515 7.515 0 100-15.03zM400.282 39.076a7.515 7.515 0 100-15.03h-4.008a7.515 7.515 0 100 15.03h4.008zM295.577 31.562a7.515 7.515 0 00-7.515-7.515h-4.008a7.515 7.515 0 100 15.03h4.008a7.515 7.515 0 007.515-7.515zM323.632 31.562a7.515 7.515 0 00-7.515-7.515h-4.008a7.515 7.515 0 100 15.03h4.008a7.515 7.515 0 007.515-7.515zM479.436 487.953a7.515 7.515 0 007.515-7.515v-2.004a7.515 7.515 0 10-15.03 0v2.004a7.516 7.516 0 007.515 7.515zM479.436 463.202a7.515 7.515 0 007.515-7.515v-3.791a7.515 7.515 0 10-15.03 0v3.791a7.516 7.516 0 007.515 7.515zM479.436 250.895a7.515 7.515 0 007.515-7.515v-3.791a7.515 7.515 0 10-15.03 0v3.791a7.516 7.516 0 007.515 7.515zM479.436 277.434a7.515 7.515 0 007.515-7.515v-3.791a7.515 7.515 0 10-15.03 0v3.791a7.516 7.516 0 007.515 7.515zM479.436 303.972a7.515 7.515 0 007.515-7.515v-3.791a7.515 7.515 0 10-15.03 0v3.791a7.516 7.516 0 007.515 7.515zM479.436 330.511a7.515 7.515 0 007.515-7.515v-3.791a7.515 7.515 0 10-15.03 0v3.791a7.516 7.516 0 007.515 7.515zM479.436 171.281a7.515 7.515 0 007.515-7.515v-3.791a7.515 7.515 0 10-15.03 0v3.791a7.516 7.516 0 007.515 7.515zM479.436 118.204a7.515 7.515 0 007.515-7.515v-3.791a7.515 7.515 0 10-15.03 0v3.791a7.516 7.516 0 007.515 7.515zM479.436 197.818a7.515 7.515 0 007.515-7.515v-3.791a7.515 7.515 0 10-15.03 0v3.791a7.515 7.515 0 007.515 7.515zM479.436 357.048a7.515 7.515 0 007.515-7.515v-3.791a7.515 7.515 0 10-15.03 0v3.791a7.515 7.515 0 007.515 7.515zM479.436 224.356a7.515 7.515 0 007.515-7.515v-3.791a7.515 7.515 0 10-15.03 0v3.791a7.514 7.514 0 007.515 7.515zM479.436 91.665a7.515 7.515 0 007.515-7.515v-3.791a7.515 7.515 0 10-15.03 0v3.791a7.516 7.516 0 007.515 7.515zM479.436 144.742a7.515 7.515 0 007.515-7.515v-3.791a7.515 7.515 0 10-15.03 0v3.791a7.516 7.516 0 007.515 7.515zM479.436 383.586a7.515 7.515 0 007.515-7.515v-3.791a7.515 7.515 0 10-15.03 0v3.791a7.515 7.515 0 007.515 7.515zM479.436 436.664a7.515 7.515 0 007.515-7.515v-3.791a7.515 7.515 0 10-15.03 0v3.791a7.516 7.516 0 007.515 7.515zM479.436 410.125a7.515 7.515 0 007.515-7.515v-3.791a7.515 7.515 0 10-15.03 0v3.791a7.516 7.516 0 007.515 7.515zM479.436 65.127a7.515 7.515 0 007.515-7.515v-2.004a7.515 7.515 0 10-15.03 0v2.004a7.515 7.515 0 007.515 7.515zM249.988 496.971h-2.004a7.516 7.516 0 000 15.03h2.004a7.516 7.516 0 000-15.03zM276.003 496.971h-3.716a7.515 7.515 0 100 15.03h3.716a7.515 7.515 0 100-15.03zM406.074 496.971h-3.716a7.515 7.515 0 100 15.03h3.716a7.515 7.515 0 100-15.03zM432.089 496.971h-3.716a7.515 7.515 0 100 15.03h3.716a7.515 7.515 0 100-15.03zM302.017 496.971h-3.716a7.515 7.515 0 100 15.03h3.716a7.515 7.515 0 100-15.03zM354.046 496.971h-3.716a7.515 7.515 0 100 15.03h3.716a7.515 7.515 0 100-15.03zM380.059 496.971h-3.716a7.515 7.515 0 100 15.03h3.716a7.515 7.515 0 100-15.03zM328.032 496.971h-3.716a7.515 7.515 0 100 15.03h3.716a7.515 7.515 0 100-15.03zM456.391 496.971h-2.004a7.515 7.515 0 100 15.03h2.004a7.515 7.515 0 100-15.03z"/>
</svg>
