<svg height="512" viewBox="0 0 512 512" width="512" xmlns="http://www.w3.org/2000/svg">
  <g>
    <g>
      <path d="M256 176h64V48H192v128h32" fill="#cca400"/>
      <path d="M16 48h128v128H16zM368 48h128v128H368z" fill="#ffeb99"/>
      <path d="M352 248v104l-16 16v104h-96l.12-104-15.98-15.43-43-80.28a16 16 0 1127.72-16L224 286.51V160a16 16 0 1132 0v64a16 16 0 1132 0v8a16 16 0 1132 0v16a16 16 0 1132 0z" fill="#ffcdbf"/>
    </g>
    <g>
      <path d="M352.97 231.01a24.046 24.046 0 00-25.8-5.33 24.014 24.014 0 00-34.93-14.6 24.727 24.727 0 00-3.27-4.07 24.045 24.045 0 00-24.97-5.64V184h56a8 8 0 008-8V48a8 8 0 00-8-8H192a8 8 0 00-8 8v128a8 8 0 008 8h24v68.68c-.07-.13-.13-.26-.21-.38a24 24 0 00-41.65 23.87l42.95 80.18a7.982 7.982 0 001.49 1.98l13.54 13.06-.12 100.6a8.006 8.006 0 008 8.01h96a8 8 0 008-8V371.31l13.66-13.65A8.008 8.008 0 00360 352V248a23.924 23.924 0 00-7.03-16.99zM200 168V56h112v112h-48v-8a24 24 0 00-48 0v8zm144 180.69l-13.66 13.65A8.008 8.008 0 00328 368v96h-79.99l.11-95.99a8 8 0 00-2.44-5.76l-15.08-14.56-42.41-79.18-.12-.21a8.033 8.033 0 012.94-10.95 7.868 7.868 0 013.98-1.07 8.031 8.031 0 016.84 3.84l15.02 29.97a8 8 0 0015.15-3.58V160a8 8 0 1116 0v104a8 8 0 0016 0v-40a8.011 8.011 0 018-8 7.989 7.989 0 018 8v40a8 8 0 0016 0v-32a8.011 8.011 0 018-8 7.989 7.989 0 018 8v32a8 8 0 0016 0v-16a8.011 8.011 0 018-8 7.989 7.989 0 018 8zM144 40H16a8 8 0 00-8 8v128a8 8 0 008 8h128a8 8 0 008-8V48a8 8 0 00-8-8zm-8 128H24V56h112zM496 40H368a8 8 0 00-8 8v128a8 8 0 008 8h128a8 8 0 008-8V48a8 8 0 00-8-8zm-8 128H376V56h112z"/>
    </g>
  </g>
</svg>
