<svg version="1.1" id="Layer_1" xmlns="http://www.w3.org/2000/svg" x="0" y="0" viewBox="0 0 512 512" style="enable-background:new 0 0 512 512" xml:space="preserve">
  <path style="fill:#FF6465" d="M256.001 8.505C119.314 8.505 8.507 119.313 8.507 256s110.807 247.495 247.495 247.495S503.496 392.688 503.496 256 392.689 8.505 256.001 8.505z"/>
  <path style="opacity:0.1;enable-background:new" d="M76.55 256c0-125.143 92.887-228.574 213.473-245.156a249.533 249.533 0 00-34.022-2.338C119.314 8.505 8.507 119.313 8.507 256s110.807 247.495 247.495 247.495c11.545 0 22.898-.809 34.022-2.338C169.437 484.574 76.55 381.143 76.55 256z"/>
  <path style="fill:#FFFFFF" d="M404.376 282.199c0 8.099-6.565 14.665-14.665 14.665H122.288c-8.099 0-14.665-6.565-14.665-14.665V229.8c0-8.099 6.565-14.665 14.665-14.665h267.423c8.099 0 14.665 6.565 14.665 14.665v52.399z"/>
  <path d="M256.001 512c-40.795 0-81.385-9.837-117.383-28.447-34.824-18.003-65.55-44.247-88.858-75.891a8.505 8.505 0 011.804-11.892c3.782-2.785 9.107-1.979 11.892 1.804 21.767 29.554 50.459 54.059 82.974 70.869 34.073 17.615 70.938 26.547 109.57 26.547 131.779 0 238.989-107.21 238.989-238.989 0-31.734-6.131-62.574-18.222-91.662a8.505 8.505 0 0115.706-6.53c12.957 31.167 19.525 64.204 19.525 98.192 0 68.379-26.629 132.667-74.981 181.019C388.668 485.371 324.381 512 256.001 512zM35.551 377.101a8.505 8.505 0 01-7.578-4.632C9.412 336.202.001 297.016.001 256c0-68.379 26.629-132.667 74.981-181.019S187.621 0 256.001 0c44.641 0 88.593 11.666 127.104 33.738 37.345 21.403 68.961 52.135 91.433 88.875a8.503 8.503 0 01-2.818 11.693 8.503 8.503 0 01-11.693-2.818c-20.984-34.308-50.508-63.006-85.38-82.992-35.94-20.598-76.967-31.486-118.645-31.486-131.78.001-238.99 107.211-238.99 238.99 0 38.295 8.782 74.874 26.103 108.719a8.506 8.506 0 01-7.564 12.382zm354.162-71.732H122.289c-12.776 0-23.17-10.394-23.17-23.17V229.8c0-12.776 10.394-23.17 23.17-23.17h267.423c12.776 0 23.17 10.395 23.17 23.17v52.399c0 12.776-10.394 23.17-23.169 23.17zm-267.424-81.727a6.166 6.166 0 00-6.159 6.159V282.2a6.165 6.165 0 006.159 6.159h267.423a6.165 6.165 0 006.159-6.159v-52.399a6.165 6.165 0 00-6.159-6.159H122.289z"/>
</svg>
