<svg version="1.1" id="Capa_1" xmlns="http://www.w3.org/2000/svg" x="0" y="0" viewBox="0 0 512 512" style="enable-background:new 0 0 512 512" xml:space="preserve">
  <polygon style="fill:#FF6465" points="320.125,320.125 7.515,320.125 7.515,7.515 320.125,7.515 320.125,191.875 "/>
  <polygon style="fill:#FF6465" points="31.562,296.078 31.562,7.515 7.515,7.515 7.515,320.125 320.125,320.125 320.125,296.078 "/>
  <rect x="191.875" y="191.875" style="fill:#DDD" width="312.611" height="312.611"/>
  <polygon style="fill:#DDD" points="215.922,480.438 215.922,191.875 191.875,191.875 191.875,504.485 504.485,504.485 
	504.485,480.438 "/>
  <path d="M263.014 15.029h49.597v152.798a7.515 7.515 0 1015.03 0V7.515A7.515 7.515 0 00320.126 0h-57.112a7.515 7.515 0 100 15.029zM227.612 0H7.515A7.515 7.515 0 000 7.515v312.611a7.515 7.515 0 007.515 7.515h160.313a7.515 7.515 0 100-15.03H15.029V15.029h212.582A7.515 7.515 0 00227.612 0zm276.873 492.963a7.52 7.52 0 00-6.927 4.596 7.517 7.517 0 002.919 14.442h4.008a7.515 7.515 0 007.515-7.515v-4.008a7.514 7.514 0 00-7.515-7.515zm-58.678 4.008h-7.81a7.515 7.515 0 100 15.03h7.81a7.515 7.515 0 100-15.03zm-31.241 0h-7.81a7.515 7.515 0 100 15.03h7.81a7.515 7.515 0 100-15.03zm-31.24 0h-7.81a7.515 7.515 0 100 15.03h7.81a7.515 7.515 0 100-15.03zm-62.481 0h-7.81a7.515 7.515 0 100 15.03h7.81a7.515 7.515 0 100-15.03zm-62.482 0h-7.81a7.515 7.515 0 100 15.03h7.81a7.515 7.515 0 100-15.03zm31.241 0h-7.81a7.515 7.515 0 100 15.03h7.81a7.515 7.515 0 100-15.03zm187.443 0h-7.81a7.515 7.515 0 100 15.03h7.81a7.515 7.515 0 100-15.03zm-124.962 0h-7.81a7.515 7.515 0 100 15.03h7.81a7.515 7.515 0 100-15.03zm-124.961 0h-7.81a7.515 7.515 0 100 15.03h7.81a7.515 7.515 0 100-15.03zm-28.323.588a7.518 7.518 0 00-14.442 2.919v4.008a7.515 7.515 0 007.515 7.515h4.008a7.515 7.515 0 002.919-14.442zM184.36 352.085a7.515 7.515 0 1015.03 0v-7.81a7.515 7.515 0 10-15.03 0v7.81zm0 124.962a7.515 7.515 0 1015.03 0v-7.81a7.515 7.515 0 10-15.03 0v7.81zm0-187.443a7.515 7.515 0 1015.03 0v-7.809a7.515 7.515 0 10-15.03 0v7.809z"/>
  <path d="M184.36 258.364a7.515 7.515 0 1015.03 0v-7.81a7.515 7.515 0 10-15.03 0v7.81zm7.515-23.727a7.515 7.515 0 007.515-7.515v-7.81a7.515 7.515 0 10-15.03 0v7.81a7.514 7.514 0 007.515 7.515zm-7.515 86.208a7.515 7.515 0 1015.03 0v-7.81a7.515 7.515 0 10-15.03 0v7.81zm0 124.962a7.515 7.515 0 1015.03 0v-7.809a7.515 7.515 0 10-15.03 0v7.809zm0-31.241a7.515 7.515 0 1015.03 0v-7.81a7.515 7.515 0 10-15.03 0v7.81zm0-31.24a7.515 7.515 0 1015.03 0v-7.81a7.515 7.515 0 10-15.03 0v7.81zm11.523-198.966h-4.008a7.515 7.515 0 00-7.515 7.515v4.008a7.515 7.515 0 0014.442 2.919 7.517 7.517 0 00-2.919-14.442zm62.481 0h-7.81a7.515 7.515 0 100 15.03h7.81a7.515 7.515 0 100-15.03zm-31.24 0h-7.81a7.515 7.515 0 100 15.03h7.81a7.515 7.515 0 100-15.03zm124.961 0h-7.81a7.515 7.515 0 100 15.03h7.81a7.515 7.515 0 100-15.03zm62.482 0h-7.81a7.515 7.515 0 100 15.03h7.81a7.515 7.515 0 100-15.03zm31.241 0h-7.81a7.515 7.515 0 100 15.03h7.81a7.515 7.515 0 100-15.03zm31.239 0h-7.81a7.515 7.515 0 100 15.03h7.81a7.515 7.515 0 100-15.03zm-187.442 0h-7.81a7.515 7.515 0 100 15.03h7.81a7.515 7.515 0 100-15.03zm93.721 0h-7.81a7.515 7.515 0 100 15.03h7.81a7.515 7.515 0 100-15.03zm-62.481 0h-7.81a7.515 7.515 0 100 15.03h7.81a7.515 7.515 0 100-15.03zm183.64 0h-4.008a7.515 7.515 0 00-2.919 14.442A7.518 7.518 0 00512 195.883v-4.008a7.515 7.515 0 00-7.515-7.515zm0 58.679a7.515 7.515 0 00-7.515 7.515v7.809a7.515 7.515 0 1015.03 0v-7.809a7.514 7.514 0 00-7.515-7.515zm0 31.241a7.515 7.515 0 00-7.515 7.515v7.81a7.515 7.515 0 1015.03 0v-7.81a7.514 7.514 0 00-7.515-7.515zm0 187.443a7.515 7.515 0 00-7.515 7.515v7.81a7.515 7.515 0 1015.03 0v-7.81a7.514 7.514 0 00-7.515-7.515zm0-249.924a7.515 7.515 0 00-7.515 7.515v7.81a7.515 7.515 0 1015.03 0v-7.81a7.514 7.514 0 00-7.515-7.515zm0 93.721a7.515 7.515 0 00-7.515 7.515v7.81a7.515 7.515 0 1015.03 0v-7.81a7.514 7.514 0 00-7.515-7.515zm0 93.722a7.515 7.515 0 00-7.515 7.515v7.809a7.515 7.515 0 1015.03 0v-7.809a7.514 7.514 0 00-7.515-7.515zm0-62.481a7.515 7.515 0 00-7.515 7.515v7.81a7.515 7.515 0 1015.03 0v-7.81a7.514 7.514 0 00-7.515-7.515zm0 93.721a7.515 7.515 0 00-7.515 7.515v7.81a7.515 7.515 0 1015.03 0v-7.81a7.514 7.514 0 00-7.515-7.515zm0-62.481a7.515 7.515 0 00-7.515 7.515v7.81a7.515 7.515 0 1015.03 0v-7.81a7.514 7.514 0 00-7.515-7.515z"/>
</svg>
