<svg id="Capa_1" enable-background="new 0 0 512.085 512.085" height="512" viewBox="0 0 512.085 512.085" width="512" xmlns="http://www.w3.org/2000/svg">
  <g>
    <g>
      <path d="M457.442 170.741H131.955a47.142 47.142 0 00-35.823 16.498l-77.228 90.278c-15.092 17.642-15.092 43.647 0 61.289l77.228 90.278a47.142 47.142 0 0035.823 16.498h325.488c26.036 0 47.142-21.106 47.142-47.142V217.883c0-26.036-21.107-47.142-47.143-47.142zM76.121 332.616c-13.506 0-24.455-10.949-24.455-24.455s10.949-24.455 24.455-24.455 24.455 10.949 24.455 24.455-10.949 24.455-24.455 24.455z" fill="#eabc6b"/>
      <g>
        <path d="M457.443 170.741h-65.72c26.036 0 47.142 21.106 47.142 47.142v180.556c0 26.036-21.106 47.142-47.142 47.142h65.72c26.036 0 47.142-21.106 47.142-47.142V217.883c0-26.036-21.107-47.142-47.142-47.142z" fill="#ebb044"/>
      </g>
      <g>
        <g>
          <g>
            <g>
              <path d="M147.993 265.71l-17.55 45.546c-1.659 4.307 2.574 8.54 6.881 6.881l45.546-17.55a57.858 57.858 0 0020.108-13.076l170.437-170.437c11.573-11.573 11.573-30.336 0-41.909s-30.336-11.573-41.909 0L161.069 245.602a57.853 57.853 0 00-13.076 20.108z" fill="#dd636e"/>
            </g>
          </g>
          <path d="M182.87 300.588a57.852 57.852 0 0015.627-9.041l-41.464-41.464a57.858 57.858 0 00-9.041 15.628l-17.55 45.546c-1.659 4.307 2.574 8.54 6.881 6.881z" fill="#938bc6"/>
          <path d="M373.415 75.165c11.573 11.573 11.573 30.336 0 41.909l-16.047 16.047-41.909-41.909 16.047-16.047c11.573-11.573 30.336-11.573 41.909 0z" fill="#5766cb"/>
        </g>
      </g>
    </g>
    <g>
      <path d="M140.994 263.015l-17.549 45.545c-1.849 4.8-.739 10.04 2.898 13.678 3.65 3.65 8.895 4.742 13.678 2.898l45.546-17.55a64.933 64.933 0 0022.714-14.771l154.38-154.381.01-.009.009-.01 16.038-16.038c14.513-14.513 14.515-38.001 0-52.517-14.479-14.477-38.037-14.477-52.516 0l-16.046 16.046-154.39 154.39a64.992 64.992 0 00-14.772 22.719zm57.726 18.147l-10.829-10.829 148.041-148.041 10.829 10.829zM336.809 80.469c8.631-8.631 22.673-8.63 31.303 0 8.65 8.65 8.652 22.651 0 31.302l-10.744 10.744-31.302-31.303zm-21.35 21.35l9.866 9.867-148.041 148.041-9.867-9.866zM186.802 290.458a50.669 50.669 0 01-6.628 3.132l-40.968 15.785 15.785-40.968a50.412 50.412 0 013.132-6.628l28.679 28.679z"/>
      <path d="M457.443 163.24H356.335c-4.142 0-7.5 3.357-7.5 7.5s3.358 7.5 7.5 7.5h101.108c21.859 0 39.642 17.783 39.642 39.643v180.556c0 21.859-17.783 39.643-39.642 39.643H131.955a39.594 39.594 0 01-30.124-13.873l-77.228-90.277c-12.773-14.933-12.773-36.607 0-51.54l9.527-11.137 17.012 17.011c-4.36 5.463-6.976 12.377-6.976 19.895 0 17.62 14.335 31.955 31.955 31.955s31.955-14.335 31.955-31.955-14.335-31.955-31.955-31.955a31.751 31.751 0 00-13.035 2.791l-19.175-19.175 57.92-67.708a39.594 39.594 0 0130.124-13.873h68.217c4.142 0 7.5-3.357 7.5-7.5s-3.358-7.5-7.5-7.5h-68.217a54.573 54.573 0 00-41.522 19.123l-57.16 66.819-19.554-19.553a7.501 7.501 0 00-10.606 10.607l20.379 20.378-10.287 12.025c-17.606 20.581-17.606 50.459 0 71.04l77.228 90.277a54.574 54.574 0 0041.522 19.123h325.488c30.13 0 54.642-24.513 54.642-54.643V217.883c0-30.13-24.512-54.643-54.642-54.643zM76.121 291.205c9.349 0 16.955 7.606 16.955 16.955s-7.606 16.955-16.955 16.955-16.955-7.606-16.955-16.955 7.606-16.955 16.955-16.955z"/>
      <path d="M414.751 256.915H290.918c-4.142 0-7.5 3.357-7.5 7.5s3.358 7.5 7.5 7.5h123.833c4.142 0 7.5-3.357 7.5-7.5s-3.358-7.5-7.5-7.5zM414.751 300.661H290.918c-4.142 0-7.5 3.357-7.5 7.5s3.358 7.5 7.5 7.5h123.833c4.142 0 7.5-3.357 7.5-7.5s-3.358-7.5-7.5-7.5zM414.751 344.406H194.418c-4.142 0-7.5 3.357-7.5 7.5s3.358 7.5 7.5 7.5h220.333c4.142 0 7.5-3.357 7.5-7.5s-3.358-7.5-7.5-7.5z"/>
    </g>
  </g>
</svg>
