<svg xmlns="http://www.w3.org/2000/svg" xmlns:sodipodi="http://sodipodi.sourceforge.net/DTD/sodipodi-0.dtd" xmlns:inkscape="http://www.inkscape.org/namespaces/inkscape" version="1.1" id="Capa_1" x="0" y="0" viewBox="0 0 511 511" style="enable-background:new 0 0 511 511" xml:space="preserve" width="512" height="512" sodipodi:docname="unite-solids-node-icon.svg" inkscape:version="1.0.1 (3bc2e813f5, 2020-09-07)">
  <sodipodi:namedview pagecolor="#ffffff" bordercolor="#666666" borderopacity="1" objecttolerance="10" gridtolerance="10" guidetolerance="10" inkscape:pageopacity="0" inkscape:pageshadow="2" inkscape:window-width="1920" inkscape:window-height="970" id="namedview848" showgrid="false" inkscape:zoom="1.063" inkscape:cx="265.128" inkscape:cy="323.545" inkscape:window-x="-12" inkscape:window-y="-12" inkscape:window-maximized="1" inkscape:current-layer="Capa_1"/>
  <g id="g845">
    <g id="g837">
      <path id="polygon833" style="fill:#7dd2f0;stroke-width:1.00196" transform="scale(.99805)" d="M7.516 7.516v312.609h184.359v184.36h312.61v-312.61h-184.36V7.515z"/>
      <path id="polygon835" style="fill:#7dd2f0;stroke-width:1.00196" transform="scale(.99805)" d="M7.516 7.516v312.609h184.359v184.36h24.047V296.077H31.562V7.516z"/>
    </g>
    <g id="g843">
      <path id="path839" style="stroke-width:1.00196" transform="scale(.99805)" d="M359.764 0c-1.204 0-2.337.29-3.346.793a46.408 46.408 0 017.453-.783c.341-.01.682-.006 1.024-.01zm6.898 0c2.72.039 5.447.223 8.178.434A7.447 7.447 0 00372.373 0zM191.875 184.36a7.515 7.515 0 00-7.516 7.515v6.012a7.515 7.515 0 007.516 7.513 7.518 7.518 0 007.389-6.136 7.516 7.516 0 006.136-7.389 7.515 7.515 0 00-7.513-7.516zm37.006 0a7.514 7.514 0 00-7.514 7.515 7.512 7.512 0 007.514 7.514h11.623a7.512 7.512 0 007.514-7.514 7.514 7.514 0 00-7.514-7.516zm42.617 0a7.516 7.516 0 000 15.029h11.621a7.514 7.514 0 100-15.03zm48.627 37.005a7.514 7.514 0 00-7.514 7.516v11.623a7.512 7.512 0 007.514 7.514 7.514 7.514 0 007.516-7.514V228.88a7.516 7.516 0 00-7.516-7.516zm-128.25.002a7.514 7.514 0 00-7.516 7.514v11.623a7.514 7.514 0 007.516 7.514 7.512 7.512 0 007.514-7.514v-11.623a7.512 7.512 0 00-7.514-7.514zm0 42.615a7.515 7.515 0 00-7.516 7.516v11.623a7.514 7.514 0 007.516 7.514 7.512 7.512 0 007.514-7.514v-11.623a7.515 7.515 0 00-7.514-7.516zm128.25 0a7.514 7.514 0 00-7.514 7.516v11.621a7.514 7.514 0 1015.03 0V271.5a7.516 7.516 0 00-7.516-7.517zm0 42.618a7.518 7.518 0 00-7.389 6.136 7.515 7.515 0 001.377 14.905h6.012a7.515 7.515 0 007.516-7.516v-6.012a7.515 7.515 0 00-7.516-7.513zm-91.244 6.011a7.514 7.514 0 100 15.03h11.62a7.516 7.516 0 000-15.03zm42.615 0a7.512 7.512 0 00-7.514 7.514 7.514 7.514 0 007.514 7.516h11.623a7.514 7.514 0 007.514-7.516 7.512 7.512 0 00-7.514-7.514z"/>
      <path id="path841" style="stroke-width:1.00196" transform="scale(.99805)" d="M7.516 0A7.515 7.515 0 000 7.516l.977 318.62a7.515 7.515 0 0014.878 1.505H184.36v169.355c-3.903.272-6.988 3.514-6.988 7.488a7.515 7.515 0 007.516 7.516h319.597a7.515 7.515 0 007.516-7.516V388.592a7.514 7.514 0 00-7.516-7.514 7.512 7.512 0 00-7.513 7.514V496.97H199.389V327.49a7.518 7.518 0 00-.125-14.755 7.517 7.517 0 00-14.752-.125H15.029V15.03h297.582v169.48a7.518 7.518 0 00.125 14.755 7.517 7.517 0 0014.752.125h169.483v153.13a7.514 7.514 0 1015.029 0V183.91a7.515 7.515 0 00-7.516-7.515 7.515 7.515 0 00-7.513 7.514v.45H327.64V14.878A7.515 7.515 0 00326.137 0z"/>
    </g>
  </g>
</svg>
