<svg version="1.1" id="Capa_1" xmlns="http://www.w3.org/2000/svg" x="0" y="0" viewBox="0 0 511.997 511.997" style="enable-background:new 0 0 511.997 511.997" xml:space="preserve">
  <rect x="58.907" y="397.854" transform="rotate(134.999 72.824 438.682)" style="fill:#F2A0A5" width="27.831" height="81.653"/>
  <rect x="88.718" y="330.929" transform="rotate(134.999 139.75 371.757)" style="fill:#EF888F" width="102.062" height="81.653"/>
  <rect x="97.954" y="353.237" transform="rotate(134.999 117.438 394.066)" style="fill:#F2A0A5" width="38.966" height="81.653"/>
  <polygon style="fill:#E53844" points="225.702,343.541 422.92,146.322 422.92,321.546 504.574,321.546 504.574,7.92 190.948,7.92 
	190.948,89.574 364.192,89.574 167.963,285.803 "/>
  <rect x="174.749" y="224.851" transform="rotate(-45.001 240.625 267.538)" style="fill:#EA6069" width="131.754" height="85.365"/>
  <rect x="189.134" y="259.627" transform="rotate(-45.001 205.834 302.313)" style="fill:#EF888F" width="33.404" height="85.365"/>
  <path d="M225.702 354.04l-68.235-68.236L346.271 96.997H183.525V.496h328.473v328.473h-96.501V164.243L225.702 354.04zm-47.241-68.238l47.24 47.241 204.642-204.642v185.722h66.808V15.343h-298.78v66.808h183.742L178.461 285.802zM132.533 447.208l-68.236-68.236 82.671-82.671 68.236 68.236-82.671 82.671zm-47.241-68.237l47.241 47.24 61.675-61.675-47.241-47.24-61.675 61.675zM91.854 487.886L23.618 419.65l30.181-30.181 68.235 68.236-30.18 30.181zm-47.241-68.235l47.241 47.24 9.186-9.186-47.24-47.241-9.187 9.187z"/>
  <rect x="-8.883" y="464.711" transform="rotate(-134.999 39.366 472.137)" width="96.5" height="14.846"/>
  <g>
    <rect x="345.288" y="150.445" transform="rotate(-134.999 352.712 157.87)" style="fill:#FFFFFF" width="14.846" height="14.846"/>
    <rect x="320.362" y="167.954" transform="rotate(-134.999 327.787 182.801)" style="fill:#FFFFFF" width="14.846" height="29.692"/>
    <rect x="255.739" y="185.73" transform="rotate(-134.999 263.162 247.422)" style="fill:#FFFFFF" width="14.846" height="123.381"/>
  </g>
</svg>
