<svg id="Capa_1" enable-background="new 0 0 512 512" height="512" viewBox="0 0 512 512" width="512" xmlns="http://www.w3.org/2000/svg"><g><path d="m432.408 360.347v-208.694c0-11.33-6.045-21.8-15.857-27.465l-180.734-104.347c-9.812-5.665-21.902-5.665-31.714 0l-180.735 104.347c-9.812 5.665-15.857 16.135-15.857 27.465v208.694c0 11.33 6.045 21.8 15.857 27.465l180.734 104.347c9.812 5.665 21.902 5.665 31.714 0l180.734-104.347c9.813-5.665 15.858-16.135 15.858-27.465z" fill="#b3e59f"/><path d="m416.551 124.188-180.734-104.347c-9.812-5.665-21.902-5.665-31.714 0l-56.438 32.585c7.707-1.773 15.922-.642 22.967 3.425l180.734 104.347c9.812 5.665 15.857 16.135 15.857 27.465v208.694c0 9.428-3.484 19.499-10.303 25.884l59.632-34.428c9.813-5.665 15.857-16.135 15.857-27.465v-208.695c-.001-11.33-6.046-21.8-15.858-27.465z" fill="#95d6a4"/><path d="m219.96 256 208.199-120.204c-2.738-4.742-6.702-8.776-11.608-11.608l-180.734-104.347c-9.812-5.665-21.902-5.665-31.714 0l-180.734 104.347c-4.906 2.833-8.871 6.866-11.608 11.608z" fill="#78c2a4"/><path d="m274.91 340.163v25.382c0 6.173 5.004 11.177 11.177 11.177 4.781 0 9.044 3.038 10.574 7.568 1.407 4.166 3.086 8.207 5.015 12.102 2.126 4.292 1.271 9.461-2.116 12.848l-.003.003c-4.365 4.365-4.365 11.442 0 15.806l17.947 17.947c4.365 4.365 11.442 4.365 15.806 0l.003-.003c3.387-3.387 8.556-4.242 12.848-2.116 3.895 1.93 7.936 3.608 12.102 5.015 4.53 1.53 7.567 5.793 7.567 10.574 0 6.173 5.004 11.177 11.177 11.177h25.382c6.173 0 11.177-5.004 11.177-11.177 0-4.781 3.038-9.044 7.567-10.574 4.166-1.407 8.207-3.086 12.102-5.015 4.292-2.126 9.461-1.271 12.848 2.116l.003.003c4.365 4.365 11.442 4.365 15.806 0l17.947-17.947c4.365-4.365 4.365-11.442 0-15.806l-.003-.003c-3.387-3.387-4.242-8.556-2.116-12.848 1.93-3.895 3.608-7.936 5.015-12.102 1.53-4.53 5.793-7.568 10.574-7.568 6.173 0 11.177-5.004 11.177-11.177v-25.382c0-6.173-5.004-11.177-11.177-11.177-4.781 0-9.044-3.038-10.574-7.568-1.407-4.166-3.086-8.207-5.015-12.102-2.126-4.292-1.271-9.461 2.116-12.848l.003-.003c4.365-4.365 4.365-11.442 0-15.806l-17.947-17.947c-4.365-4.365-11.442-4.365-15.806 0l-.003.003c-3.387 3.387-8.556 4.242-12.848 2.116-3.895-1.93-7.936-3.608-12.102-5.015-4.53-1.53-7.567-5.793-7.567-10.574 0-6.173-5.004-11.177-11.177-11.177h-25.382c-6.173 0-11.177 5.004-11.177 11.177 0 4.781-3.038 9.044-7.567 10.574-4.166 1.407-8.207 3.086-12.102 5.015-4.292 2.126-9.461 1.271-12.848-2.116l-.003-.003c-4.365-4.365-11.442-4.365-15.806 0l-17.947 17.947c-4.365 4.365-4.365 11.442 0 15.806l.003.003c3.387 3.387 4.242 8.556 2.116 12.848-1.93 3.895-3.608 7.936-5.015 12.102-1.53 4.53-5.793 7.568-10.574 7.568-6.173.001-11.177 5.005-11.177 11.177z" fill="#4073c8"/><g><g><circle cx="389.699" cy="352.854" fill="#f2f9ff" r="49.357"/></g></g><path d="m493.312 328.987c-4.781 0-9.044-3.038-10.574-7.568-1.407-4.166-3.085-8.207-5.015-12.102-2.127-4.292-1.271-9.461 2.116-12.848l.003-.003c4.365-4.365 4.365-11.442 0-15.806l-17.948-17.947c-4.365-4.365-11.441-4.365-15.806 0l-.003.003c-3.387 3.387-8.556 4.242-12.848 2.116-3.895-1.93-7.936-3.608-12.102-5.015-4.53-1.53-7.568-5.793-7.568-10.574 0-6.173-5.004-11.177-11.177-11.177h-25.382c-5.048 0-9.311 3.349-10.698 7.944 42.598 16.776 72.745 58.289 72.745 106.845 0 48.555-30.148 90.069-72.745 106.844 1.387 4.596 5.649 7.945 10.698 7.945h25.382c6.173 0 11.177-5.004 11.177-11.177 0-4.781 3.038-9.044 7.568-10.574 4.166-1.407 8.207-3.085 12.102-5.015 4.292-2.126 9.461-1.271 12.848 2.116l.003.003c4.365 4.365 11.442 4.365 15.807 0l17.947-17.947c4.365-4.365 4.365-11.442 0-15.806l-.003-.003c-3.387-3.387-4.242-8.556-2.116-12.848 1.93-3.895 3.608-7.935 5.015-12.102 1.53-4.53 5.793-7.567 10.574-7.567 6.173 0 11.177-5.004 11.177-11.177v-25.382c0-6.175-5.005-11.178-11.177-11.178z" fill="#3b66c1"/><g><path d="m493.312 321.475c-1.571 0-2.961-.988-3.457-2.46-1.502-4.446-3.319-8.831-5.402-13.033-.694-1.402-.415-3.09.7-4.204 7.286-7.286 7.286-19.143 0-26.429l-17.948-17.949c-7.286-7.285-19.142-7.285-26.429 0-.01.01-.021.02-.03.03-1.112 1.089-2.784 1.358-4.174.67-4.204-2.083-8.589-3.9-13.034-5.401-1.471-.497-2.459-1.887-2.459-3.458 0-10.305-8.384-18.688-18.688-18.688h-25.381c-10.305 0-18.688 8.384-18.688 18.688 0 1.571-.989 2.961-2.461 3.458-4.444 1.501-8.829 3.318-13.032 5.401-1.402.696-3.089.415-4.201-.696-.021-.021-.041-.041-.063-.062-7.291-7.229-19.105-7.209-26.371.058l-17.947 17.948c-7.286 7.286-7.286 19.143.003 26.432 1.112 1.111 1.392 2.8.696 4.202-2.081 4.202-3.898 8.587-5.401 13.033-.497 1.471-1.887 2.459-3.457 2.459-10.305 0-18.688 8.383-18.688 18.688v25.382c0 10.305 8.384 18.688 18.688 18.688 1.571 0 2.961.988 3.457 2.46 1.502 4.446 3.319 8.831 5.401 13.032.695 1.402.416 3.091-.699 4.205-7.286 7.286-7.286 19.143 0 26.429l17.948 17.948c7.267 7.266 19.077 7.284 26.367.061.022-.022.044-.044.066-.065 1.112-1.111 2.799-1.389 4.201-.697 4.202 2.083 8.586 3.9 13.033 5.402 1.471.497 2.46 1.886 2.46 3.457 0 10.305 8.384 18.688 18.688 18.688h25.381c10.305 0 18.688-8.384 18.688-18.688 0-1.571.988-2.961 2.459-3.457 4.446-1.502 8.832-3.319 13.034-5.402 1.387-.689 3.061-.419 4.172.669l.032.032c7.286 7.285 19.141 7.286 26.43 0l17.947-17.948c7.286-7.286 7.286-19.143-.003-26.432-1.112-1.112-1.392-2.8-.696-4.202 2.081-4.202 3.898-8.587 5.401-13.033.497-1.471 1.887-2.459 3.457-2.459 10.305 0 18.688-8.384 18.688-18.688v-25.382c0-10.304-8.384-18.687-18.688-18.687zm3.665 44.07c0 2.021-1.644 3.666-3.666 3.666-8.021 0-15.13 5.094-17.69 12.675-1.287 3.811-2.845 7.569-4.629 11.17-3.56 7.183-2.14 15.821 3.537 21.498 1.43 1.429 1.43 3.755 0 5.184l-17.946 17.947c-1.421 1.421-3.725 1.43-5.157.028-.01-.011-.021-.021-.03-.031-5.674-5.673-14.311-7.094-21.494-3.535-3.602 1.785-7.36 3.342-11.17 4.63-7.582 2.56-12.675 9.669-12.675 17.69 0 2.021-1.644 3.666-3.666 3.666h-25.381c-2.022 0-3.666-1.645-3.666-3.666 0-8.021-5.095-15.131-12.675-17.69-3.81-1.287-7.569-2.845-11.171-4.63-2.638-1.307-5.471-1.942-8.282-1.942-4.818 0-9.569 1.867-13.152 5.419-.022.021-.042.041-.063.062-1.429 1.43-3.755 1.43-5.184 0l-17.947-17.948c-1.43-1.429-1.43-3.755.003-5.187 5.673-5.673 7.093-14.311 3.535-21.494-1.785-3.602-3.343-7.36-4.63-11.17-2.56-7.582-9.669-12.676-17.69-12.676-2.022 0-3.666-1.645-3.666-3.666v-25.382c0-2.021 1.644-3.665 3.666-3.665 8.021 0 15.13-5.094 17.69-12.675 1.287-3.811 2.845-7.569 4.63-11.171 3.558-7.183 2.138-15.821-3.538-21.497-1.43-1.429-1.43-3.755 0-5.184l17.946-17.947c1.431-1.429 3.756-1.427 5.185 0 .019.019.038.038.058.057 5.674 5.628 14.279 7.029 21.44 3.48 3.602-1.785 7.36-3.342 11.169-4.629 7.582-2.56 12.676-9.669 12.676-17.691 0-2.021 1.644-3.666 3.666-3.666h25.381c2.022 0 3.666 1.645 3.666 3.666 0 8.021 5.094 15.13 12.675 17.691 3.809 1.286 7.568 2.844 11.17 4.629 7.184 3.56 15.82 2.138 21.493-3.534.011-.01.021-.021.031-.031 1.432-1.402 3.737-1.392 5.156.027l17.947 17.948c1.43 1.429 1.43 3.755-.003 5.187-5.674 5.674-7.094 14.312-3.535 21.494 1.785 3.602 3.343 7.36 4.63 11.17 2.56 7.582 9.669 12.676 17.69 12.676 2.022 0 3.666 1.644 3.666 3.665z"/><path d="m389.699 295.986c-31.357 0-56.868 25.511-56.868 56.868s25.511 56.868 56.868 56.868c31.358 0 56.869-25.511 56.869-56.868s-25.511-56.868-56.869-56.868zm0 98.714c-23.074 0-41.845-18.772-41.845-41.845s18.772-41.845 41.845-41.845 41.846 18.772 41.846 41.845-18.772 41.845-41.846 41.845z"/><path d="m284.816 455.196-52.755 30.458c-1.469.848-3.009 1.523-4.59 2.038v-227.356l196.895-113.677c.345 1.627.531 3.298.531 4.994v76.555c0 4.148 3.363 7.511 7.511 7.511 4.149 0 7.511-3.363 7.511-7.511v-76.555c0-13.905-7.537-26.998-19.614-33.97l-180.733-104.347c-12.096-6.984-27.127-6.985-39.225 0l-180.734 104.347c-5.812 3.356-10.552 8.113-13.923 13.69-.154.212-.3.434-.434.667-.134.232-.253.469-.36.709-3.146 5.708-4.896 12.192-4.896 18.904v208.694c0 13.969 7.515 26.986 19.613 33.97l180.734 104.347c12.097 6.984 27.127 6.986 39.225 0l52.755-30.458c3.592-2.074 4.824-6.668 2.749-10.261-2.073-3.592-6.669-4.824-10.26-2.749zm-72.368 32.495c-1.581-.514-3.121-1.189-4.59-2.037l-180.734-104.347c-7.464-4.31-12.101-12.341-12.101-20.96v-208.694c0-1.696.186-3.367.531-4.994l196.894 113.677zm-189.383-354.042c1.236-1.112 2.59-2.109 4.059-2.957l180.734-104.346c7.466-4.309 16.74-4.309 24.203 0l180.734 104.347c1.469.848 2.824 1.845 4.06 2.957l-196.896 113.677z"/></g></g></svg>